<?xml version="1.0" encoding="UTF-8"?>
<svg id="Layer_1" xmlns="http://www.w3.org/2000/svg" version="1.1" viewBox="0 0 428 461.1">
  <!-- Generator: Adobe Illustrator 29.1.0, SVG Export Plug-In . SVG Version: 2.1.0 Build 142)  -->
  <defs>
    <style>
      .st0 {
        fill: #fff;
      }
    </style>
  </defs>
  <path class="st0" d="M247.7,299.4c-4.3,3.9-9.4,6.3-14.4,8.6l-.9.4c-5.7,2.6-11,5-15.4,9-1.3,1.2-3,1.3-4.4,0-5.2-4.5-11.4-7.3-17.9-10.2l-1.7-.7c-7-3.2-11.9-6.8-15.5-11.3-1.7-2.1-2.9-4.2-3.7-6.2h-6.9c2.9,6.9,7.6,12.6,14.4,17.6,4.8,3.5,10.3,6,14.6,7.7,7.8,3.2,13.9,7.5,18.9,13.1,4.6-5,9.9-9,15.9-11.7,1.1-.5,2.2-1,3.3-1.4,2.6-1.1,5.3-2.3,7.9-3.7,10.3-5.4,17-12.5,20.6-21.7h-6.8c-1.8,4.5-5.1,7.9-7.9,10.5Z"/>
  <path class="st0" d="M231.3,272.8c-4.2,0-8.5,0-12.7,0-1.8,0-1.8,0-1.8-1.8,0-14,0-39.6,0-53.7s0-4.2,0-8.6c.9,0,1.6-.4,1.9-1.4.4-1.1.1-2.1-.8-2.8-.4-.3-.8-.5-.9-1,0-.2-.1-.4-.3-.5v-2.7c.6,0,1.2,0,1.8,0,1.6,0,2.7-1.1,2.9-2.5.2-1.1-.1-2-1-2.7-.8-.7-1.7-.7-2.6-.1-.3.2-.6.2-.9.3-.1-2.1.7-7.4,2.7-8.1.2,0,.4-.3.6-.4,2.4-1.7,2.8-4.7,1-7-.9-1.1-2.1-1.6-3.4-2-.7-.2-1.5-2.5-1.1-3.1.2-.2.4-.2.7-.2.5.1.9.3,1.4.3,5.3,1,10-.2,14.1-3.7,7.2-6.1,10-18,3-27.3-2.7-3.7-6.3-6.1-10.8-6.8-1.9-.3-2.7-.9-3.4-2.6-1.8-4.2-6.1-6.5-10.4-5.7-3.8.8-6.1,3.3-7.4,6.8-.3.7-.5,1.3-1.4,1.3-5,.4-9,2.8-12,6.7-4.5,6-5.5,12.6-2.8,19.6,2.1,5.3,5.7,9.4,11.4,11.2,3,1,6.1,1,9.2.4.4,0,.9-.4,1.1,0,.3.8,0,1.7-.1,2.5-.1.6-.8.4-1.2.5-2.3.5-4,2.4-4.3,4.5-.3,2,.8,4.2,3,5.1,1.9.8,2.6,5.8,2.4,7.7,0,0,0,0,0,0-.2,0-.5-.1-.7-.3-1.7-.9-3.5.2-3.6,2.2,0,1.8,1.1,3.2,3.1,3.3.5,0,1,0,1.5,0v3.1c-.2.6-.8.9-1.2,1.3-.7.7-1.1,1.5-.7,2.5.4.9,1,1.4,1.9,1.5v65h0v19.6c0,1.8,1.4,3.3,3.2,3.5,0,0,0,0,0,0,2,.2,3.7-1.4,3.7-3.4s0-.8,0-1.2c0-1.4.2-1.5,1.7-1.5,4.5,0,9,0,13.5,0,.8,0,1.1-.4.8-1.5-.1-.8-.2-1.5,0-2.3.2-1.2-.1-1.7-1-1.7-.8,0-3.9,0-4.7,0-.9,0-1.3-.4-1-1.7.2-1,.2-2,0-3-.2-1.3,0-1.8,1-1.8.8,0,3.9,0,4.7,0,.9,0,1.2-.5,1.1-1.5-.1-.9,0-1.8,0-2.7,0-1.2-.4-1.6-1.5-1.5ZM225,151.4c1,1.2,1.7,2.6,1.6,4.1,0,2.9-1.6,5-4.1,5.7-2.4.6-4.8-1.3-5.9-3.1-.3-.4,0-.6.3-.8,1.9-1.7,2-3.7,0-5.4-1-.8-.7-1.2,0-1.8,2.2-1.8,5.8-1.2,8.1,1.3ZM209.1,138.9c0-3.1,2.2-5.4,4.8-4.9,2.5.5,4.3,3.8,3.4,6.6-.6,2.2-2,3.9-3.5,5.6-.3.3-.6.4-1,.1-1.3-1.2-4-4.6-3.8-7.4ZM208.9,149.5c.3.1.5.3.8.4.8.6,1.3,1,0,1.8-2.1,1.5-2.2,3.7-.3,5.5.6.5.6.9.1,1.5-1.2,1.3-2.5,2.5-4,2.6-3.1,0-5.2-2.2-5.5-5.3-.4-5.3,5.1-8.1,8.8-6.5ZM204.9,170.6c-.7,0-1.3,0-2-.2-3.9-.6-7.4-3-9.6-6.6-3.5-5.5-3-12.8,1.1-17.9,2-2.5,4.8-4.1,8.7-4.8.7-.1,1.5.2,2.1,1,.3.3,1.1,1.4.7,2.4-.3.9-1.2.9-1.5.9,0,0-.1,0-.1,0-4.3,1-7,3.5-8.1,7.3-.8,2.9-.3,6,1.4,8.6,1.5,2.3,3.7,3.8,6.1,4.1,3,.4,5.5-.6,7.8-3.1h0c.6-.7,1-1.2,1.7-1.2h0c.7,0,1.1.4,1.8,1.2,3,3.1,6.6,4,10.2,2.4,2.1-.9,3.9-2.8,4.9-5.2,1-2.6,1-5.5,0-8-1.4-3.2-3.8-5.2-7.4-6.1,0,0-.2,0-.3,0-.4,0-1-.1-1.4-.7-.3-.4-.3-.9-.1-1.5,0-.1,0-.2,0-.3.2-.7.6-2.3,2.6-2,3,.6,5.6,1.9,7.7,4,3.1,3,4.6,7.1,4.3,11.5-.3,4.5-2.4,8.7-5.9,11.4-2.3,1.8-5,2.7-7.8,2.5-3.1.2-5.9-.8-8.3-2.9-.2-.1-.2-.2-.3-.2,0,0,0,0-.2.2-2.4,2-5.3,3.1-8.3,3.1ZM213.2,183.6h0c-1.6,0-3.2,0-4.7,0-1.6,0-2-.9-1.1-2.2.7-1.1,1.6-1.8,2.9-1.8,2.1,0,4.2,0,6.3,0,.9,0,1.6.4,2.2,1,.7.6,1.3,1.4,1,2.3-.3,1.1-1.3.7-2.1.7-1.4,0-2.9,0-4.4,0Z"/>
  <path class="st0" d="M167.7,148.2c.2,0,.3,0,.5,0h.1c.5,0,1.1,0,1.6,0,1.7,0,3.4,0,5.1,0,.4,0,.5,0,.6,0,0,0,0-.3,0-.7,0-1.5,0-3,0-4.5,0-3.2,0-6.6.1-9.9,0-2,1-3.1,3-3.4,8.6-1.6,14.5-4.2,19.1-8.6,1.2-1.2,2.3-2.5,3.4-3.9.4-.4.7-.9,1.1-1.3,3.2-3.8,7.4-5.9,11.7-5.9h0c4.3,0,8.3,2,11.5,5.7,3.2,3.7,5.9,6.6,9.4,8.8,4.4,2.6,9.1,4.3,13.9,5,2.4.3,3.6,1.6,3.5,4,0,1.6,0,3.3,0,4.9,0,.7,0,1.4,0,2.2v1.5h0c0,.2,0,.5,0,.7,0,1.7,0,3.5,0,5.2,0,.1,0,.2,0,.2,0,0,.1,0,.2,0,1.3,0,2.7,0,4,0,1.1,0,2.3,0,3.4,0,0,0,.2,0,.2,0,.3,0,.6,0,.9,0,1.2-1.8,2.7-3.6,4.5-5.1-.1,0-.4,0-.5,0h-.9c-.9,0-1.9,0-2.8,0-3.1,0-3.8-.8-3.8-3.9v-1.3c0-4,0-8.1,0-12.2,0-.5,0-.7,0-.7,0,0-.1,0-.4,0s-.1,0-.2,0c-1.9.1-3.8-.2-5.5-.4h-.7c-2.4-.4-4.6-1-6.6-1.7.1-4.6.8-9.2,1.8-13.8,1.6-7.5,4.2-14.6,8.6-20.9.8-1.1,1.7-2.1,2.5-3.2-.3-.3-.6-.2-.9-.3-2.6,0-5.1.2-7.6.8-4.3,1.1-7.9,3.1-10.3,6.9-.2.3-.3.7-.7.6-.4,0-.3-.5-.4-.8-1-3.9-4.2-6.2-8.2-5.9-1.5.1-2.8.9-4.3,1.8.7-1.7,1.3-3,2-4.3.3-.5.2-.7-.4-.8-2.8-.3-4.9-1.7-6.6-3.8-2-2.5-3.2-5.4-4.3-8.3-.1-.4-.1-.8-.6-1-.9,2.4-1.8,4.8-3.1,7-1.9,3.2-4.2,5.9-8.2,6.3-.8,0-.7.4-.4.9.7,1.2,1.3,2.4,2,3.6-2.6-1.4-5.2-2-8-.9-2.9,1.1-3.9,3.7-4.8,6.4-5-7.1-12.1-8.6-20.2-8.6.2.4.3.6.4.7,4.6,4.7,7.3,10.5,9.3,16.7,2.2,6.7,3.5,13.5,3.7,20.5-3.9,1.5-8.4,2.3-13.6,2.5-.2,0-.6,0-.9,0,0,.3,0,.7,0,.8,0,1.1,0,2.2,0,3.4,0,3.3,0,6.7,0,10.1,0,1.3-.3,2.2-.9,2.9-1,1-2.4.9-2.9.9-.9,0-1.9,0-2.9,0-.4,0-.7,0-1.1,0,1.8,1.5,3.4,3.4,4.6,5.1ZM198.7,112.3c-.3.4-.7.8-1,1.2-1.1,1.2-2.2,2.5-3.4,3.7-.2,0-.4.1-.7.2-.9.2-1.8.4-2.6.6-.8.2-1.2,0-1.2-.9,0-1,0-3.6-.5-4.5-.4-.7.3-.9.9-1,3.8-.9,7.7-1.6,11.6-2.1-1,.8-2,1.8-3,2.9ZM240,113.3c-.1.6-.5,3.3-.6,3.9,0,.9-.3,1.1-1.2.9-1.6-.4-3.1-.9-4.6-1.5-.9-.9-1.8-1.9-2.7-2.9-1-1.2-2.2-2.4-3.3-3.4-.4-.3-.8-.7-1.1-1,4.1.5,8.2,1.2,12.3,2.1,1.5.4,1.5.4,1.2,1.9ZM236.1,97.8c1.1,0,2,.9,2.1,2.1,0,1.1-.8,2-1.9,2-1.1,0-1.9-.9-2-2,0-1.1.8-2.1,1.9-2.1ZM222.9,96.5c1,0,1.8,1,1.8,2,0,1-.9,1.9-1.9,2-1,0-2-.9-2-2,0-1.1,1-2,2-2ZM206.7,96.5c1,0,1.9,1,1.9,2,0,1.1-.9,2-1.9,2-1.1,0-2-.9-2-1.9,0-1.1,1-2.1,2.1-2.1ZM193,97.8c1,0,2,1,2,2.1,0,1.1-.8,1.8-1.9,1.8-1.1,0-2-.8-2-1.9,0-1,1-2.1,1.9-2.1ZM181.6,91.3c0-.1-.1-.3-.3-.7,2.3.8,4,2,5.5,3.5.2.2.4.5.6.7.9.8.9,1.5.4,2.7-1.2,2.6-.5,5.9,2.3,7.8,2.2,1.5,5.4,1.1,7.3-1,2.1-2.3,2.2-5.6.2-8.1-1.2-1.5-1.3-2.1-.5-3.4.8-1.2,2.1-1.8,3.5-1.6,1.2.2,2.4,1.4,2.6,2.7.1.6-.2.9-.5,1.3-1.8,1.9-2.1,4.9-.7,7,1.4,2.1,4.2,2.8,6.9,1.8,2.2-.8,3.9-3.5,3.5-6-.5-3.4-1.9-6.5-3.7-9.4-.6-1-.6-1.5.6-2.1,2.3-1.2,3.7-3.4,5-5.6.2-.3.2-.7.6-.7.4,0,.5.4.6.7,1.3,2.5,3,4.6,5.5,5.9.8.4.4.8.1,1.3-1.9,3.1-3.4,6.4-3.9,10-.3,2.3.9,4.7,2.8,5.7,2.2,1.1,5.1.9,6.8-.7,2-1.8,2.3-5.1.6-7.5-1.1-1.6-1.2-2.1-.4-3.1,1-1.2,2.5-1.6,3.9-1,1.2.5,1.9,1.5,2.1,2.9,0,.5,0,.9-.5,1.3-3.5,3.4-2.2,8.9,2.5,10.3,3.3,1,6.9-1.6,7.1-5,0-1.4,0-2.8-.7-4.1-.2-.3-.3-.7,0-1,1.7-2.3,3.7-4.2,6.6-5.1,0,.5,0,.8-.2,1-3.5,5-4.9,10.8-6.3,16.6-.2,1-.5,1.2-1.4.9-5.8-1.4-11.6-2.2-17.4-2.5-1.9-.9-3.9-1.5-6.1-1.7-3.9-.4-7.5.2-10.7,1.8-.3,0-.6,0-.9,0-5.1.4-10.2,1.3-15.1,2.5-.9.2-1.2.1-1.4-.8-1.3-6.1-3.4-11.9-6.6-17.2Z"/>
  <path class="st0" d="M172,273.1c-1-2.1-2.6-3.9-4.5-5.1-.9-.6-2-1.2-2.5-2.1-.4-.8-.4-1.7-.4-2.5,0-8.9,0-17.8,0-26.7,0-1.3,0-2.7.5-3.9.6-1.4,1.7-2.4,2.7-3.5,10.4-11.3,10.2-30.6-.3-41.8,3.6-.2,6.9-3.2,7.4-6.8.3-1.6,0-3.3.4-4.9.7-2.9,3.3-5.2,3.5-8.2.2-3.1-2.2-5.7-4.8-7.2s-5.6-2.6-7.8-4.7c-2.1-2-3.3-4.7-4.9-7-3.3-4.9-8.5-8.6-14.3-9.5s-12.2,1.5-15.5,6.4c-.7,1-1.3,2.1-2.1,3.1-.7.8-1.6,1.4-2.4,2-9.6,7.5-14.7,20.4-12.9,32.4.9,5.7,3.1,11.1,4,16.8.8,5.7-.1,12.2-4.5,15.9,1.6-5.6,1.9-11.6,0-17.1-1.8-5.5-6-10.4-11.5-12.2-9.3-3.1-24.9,9.3-13.5,16.7,3.7,2.4,9.4.8,11.3-3.2,2.7,7.9-1.7,16.5-7.5,22.6-5.7,6.1-12.9,10.9-17.5,17.9-4.7,7.2-6.2,16.4-3.7,24.6,2.5,8.2,9.2,15.1,17.4,17.5,4.5,1.3,9.2,1.3,13.8,1.4,23.4.1,46.9.2,70.3.3,1.3-3.6.9-7.7-.8-11.1ZM169.2,213.2c-.6,4-1.9,7.8-4.9,10.8-.3.3-.7,1-1.2.7-.6-.3-.1-.9,0-1.3,1.3-3.5.6-7-.2-10.4-.8-3.5-1.9-7-3-10.4-1.5-4.9-4.5-9-7.8-12.8-2.7-3.2-5-6.6-5.5-10.9-.2-2.2-.2-4.4.8-6.8.9,1.2.8,2.2,1,3.2.6,2.8,2.3,4.9,4.2,6.9,2.9,3.1,6.4,5.6,9.3,8.7,5.9,6.4,8.5,13.9,7.2,22.5ZM170.5,180c-.5,1.5-2,2.5-3.9,2.5,0,0-.1,0-.2,0-1.1-.2-2.7.2-3.1-1.4-.2-1,2-3,3.2-3.1,1.2-.1,2.3.2,3.4.5,1,.2.8,1,.6,1.6ZM125.7,159.4c4.5-5.7,10.3-8.9,17.8-8.7,2.9,0,5.6.9,8,2.5.7.4,1.3.9,2.1,1.4.2-1-.3-1.5-.7-2.1-2.4-3.3-5.8-4.6-9.7-5-1.5-.2-2.9,0-4.4,0-.5,0-1.2.3-1.4-.3-.2-.6.6-.7,1-.9,3.4-1.4,6.8-1.5,10.3-.4,4.5,1.4,7.6,4.2,8.4,9.1,0,.5.3,1,.8,1.2,2.9.7,4.9,2.8,7.1,4.5,2.3,1.8,4.6,3.5,6.9,5.3,1.7,1.4,1.8,4.3.4,6.6-1.2,1.9-3.1,2.4-5.3,1.5-2.6-1.1-7,.9-8.3,4-.7,1.6-1.2,1.6-2.4.6-4.3-3.7-6.1-8.4-5.3-14.1.1-.9.7-1.9,0-2.6-.8-.7-1.9,0-2.7.3-4.1,1.9-6.5,5.3-7.7,9.4-2.5,8.4.1,15.5,6.1,21.6,1,1.1,2,2.1,3,3.2,4.1,4.4,4.7,10.8,1.7,15.9-.2.4-.5,1.1-1,1-.7,0-.5-.8-.6-1.3-.6-3-2-5.6-3.9-8.1-2.9-3.8-6.6-7.1-9.1-11.2-4.7-7.9-5.9-16.3-2.2-24.9,2.7-6.3,7.7-9.5,14.4-10.1.5,0,1.2.2,1.4-.4.2-.6-.5-1-.9-1.3-2.6-2.1-5.5-2-8.4-1.2-6.7,1.7-10.2,6.6-12.1,12.9-1.2,3.9-1.6,8.1-3.8,11.5-2.5,3.8-2.9,7.9-2.6,12.2,0,.5.2,1-.4,1.7-1.4-2.5-1.9-5.1-2.3-7.7-1.7-9.5,0-18.3,6-26ZM127,186.6c.1-.4.2-.9.4-1.3,0-.2.2-.4.5-.4.3,0,.4.2.4.4,1.3,4,3,7.9,3,13.3-.2,3.7-2,7.5-5.9,10.2-.4.3-1,.9-1.5.5-.6-.5,0-1,.2-1.5,1.6-3.6,2.3-7.3,2.3-11.3,0-3.3-.1-6.6.6-9.8ZM90.3,277c-.5.6-1.3,0-1.9-.2-3.4-1.7-6.4-4-8.6-7.1-6.6-9.3-5.8-20.8,2.1-29.9,4-4.6,8.5-8.5,12.6-12.9,4.2-4.3,7.7-9.1,9.8-14.8,1.4-3.8,1.8-7.8.1-11.6-1.1-2.5-2.7-4.6-5.7-5.2-1.8-.3-2.5.3-2.6,2.1,0,1.3-.5,2.3-1.8,2.8-1.4.5-2.4-.2-3.2-1.3-1.3-1.9-.8-4.5,1.2-6.2,2.7-2.2,5.9-2.5,9-1.3,5.2,2,7.7,6.3,8.7,11.5.2,1.3.4,2.6.3,3.9,0,7.9-3.5,14.2-8.7,19.8-5.1,5.6-10.6,10.9-15.2,17-6.1,8-6.6,17.5-1.3,26.1,1.3,2,2.7,3.9,4.3,5.7.4.5,1.3,1,.7,1.7ZM148.8,279.1c-.3.8-1.2.4-1.8.5-.3,0-.6,0-.9,0h0c-.6,0-1.1,0-1.7,0-1,0-1.5-.5-1.7-1.5-1.4-6.9-5.6-10.3-12.6-10.3-.3,0-.6,0-.9,0-.4,0-.9.1-1.1-.3-.2-.5.3-.7.5-.9,4.4-4.4,6.4-9.8,6.5-16,0-1.5,2.5-3.4,3.9-3,.8.3.7,1.1.8,1.7,1.6,7,3.1,14,4.7,21.1.6,2.6,1.7,5,3.4,7.2.4.5,1.1,1,.9,1.6ZM167,279c-2.5-.2-5.1.4-7.6-.5-4.3-1.5-7-4.5-8.2-8.8-2.3-8.2-4.1-16.5-6-24.8-1.2-5.3-2.3-10.5-3.5-15.8-.4-1.6-.8-3.2-2.2-4.3-.6-.5-.6-1.1-.6-1.9,0-1.8-1.6-2.5-3.1-1.6-1.2.7-1.7,2-1.7,3.3,0,3.3,4,16.1,1.8,16.8-4.6,0-9.4-4.9-13.7-5.9-5.9-1.3-10.5.6-14.1,5.3-.8,1.1-1.1,2.1,0,3.2,1.1,1.2,2.1.6,3,0,1.3-.9,2.4-2.1,4-2.6,6.5-2.2,12.9,2.3,13.2,9.3.3,7.3-3.8,11.8-9.4,15.4-3.5,2.3-7.4,3.6-11.4,4.9-1.4.5-2.9,1-4.3,2.5,5.9-.4,11.3-.2,16.7-.3,3.4,0,6.8,0,10.2,0,2.8,0,4.8,1.4,6.1,3.9.5,1.1.4,1.7-1,1.7-9.8,0-19.5.3-29.3-.2-7.2-.4-13.6-5.6-14.7-14.7-1.1-9.4,1.5-17.3,8.1-24.1,7.9-8.2,15.7-16.6,23.5-24.9.5-.5,1.1-1,1.8-1.2,4.8-1.5,8.2-4.8,10.5-9.1.5-1,1.1-1.4,2.1-.6,4.8,4,8.9,8.3,9.5,14.9,0,.8.1,1.6,0,2.4,0,1.6.4,2,1.8,1.2,2-1,3.5-2.5,4.8-4.2.6-.9,1.2-1.8,1.8-2.7.2-.4.3-1,.9-.9.6,0,.7.7.8,1.1.7,2.3,1,4.7,1,7.1,0,14.4,0,28.8,0,43.3,0,4,.9,5.2,4.8,6.2,2.8.7,4.8,2.8,5.1,5.1,0,.6.2,1.4-.8,1.3Z"/>
  <path class="st0" d="M158.5,162.5c.5.9,1.1,1.8,1.7,2.6.6.9,3.5,1.6,3.9,1,.7-1.1-.5-1.7-.9-2.5-.2-.6-.7-1-1-1.6-.6-1.2-1.5-1.8-2.9-1.6-.7.1-1.6-.3-2,.3-.5.8.7,1.2,1,1.8Z"/>
  <path class="st0" d="M357.6,251.6c-.6-4-2.1-7.8-4.3-11.2-4.6-7.1-11.9-11.9-17.7-18s-10.2-15.1-7-22.8c.8,3.6,5.1,5.8,8.7,4.7,3.5-1.1,5.8-4.9,5.6-8.6-.2-3.7-2.7-7-6-8.7-6.8-3.5-15.7,0-19.8,6.4s-4.3,14.7-2.5,22.1c-4.3-3.6-5.3-10-4.5-15.6s3.1-10.9,4-16.5c2.1-12.9-3.9-26.8-14.6-34.2-.6-.4-1.2-.8-1.7-1.4-.7-.9-.9-2-1.3-3-1.1-2.4-3.6-3.9-6.1-4.7-9.1-2.9-20,1.4-24.5,9.8-.9,1.6-1.5,3.3-2.7,4.6-.9,1-2.1,1.8-3.2,2.5-3,1.9-9.8,4.6-10.4,8.2-.7,4,2.9,7.9,3.5,11.7.2,1.4.1,2.8.4,4.2.7,3.4,3.9,6.1,7.4,6.3-5.3,5.5-8.5,13.2-8.5,20.9,0,7.7,3,15.4,8.3,21,1,1,2,2,2.5,3.3.4,1.1.4,2.3.4,3.5,0,9.3,0,18.6,0,27.9,0,.7,0,1.5-.3,2.2-.6,1.3-2.2,1.7-3.5,2.4-2.5,1.4-4.1,4.2-4.6,7-.5,2.8-.2,5.8.1,8.6,23.8-.1,47.6-.3,71.5-.4,4.7,0,9.4,0,13.9-1.5,7.7-2.5,13.6-9.2,16.1-16.8,1.4-4.4,1.7-9.2,1-13.8ZM255.7,172.5c-1.5-2.3-1.4-5.2.4-6.6,2.2-1.8,4.6-3.5,6.9-5.3,2.2-1.7,4.2-3.8,7.1-4.5.6-.1.7-.6.8-1.2.7-4.9,3.9-7.6,8.4-9.1,3.5-1.1,6.9-1,10.3.4.4.2,1.2.3,1,.9-.2.6-.9.3-1.4.3-1.5,0-3-.1-4.4,0-3.8.4-7.3,1.7-9.7,5-.4.6-.9,1.1-.7,2.1.8-.5,1.5-.9,2.1-1.4,2.4-1.6,5.1-2.4,8-2.5,7.5-.2,13.3,3,17.8,8.7,6.1,7.7,7.7,16.5,6,26-.5,2.6-.9,5.2-2.3,7.7-.6-.6-.4-1.2-.4-1.7.3-4.3-.2-8.4-2.6-12.2-2.3-3.4-2.7-7.6-3.8-11.5-1.9-6.3-5.4-11.1-12.1-12.9-2.9-.8-5.9-.8-8.4,1.2-.4.3-1.1.7-.9,1.3.2.6.9.3,1.4.4,6.7.6,11.7,3.8,14.4,10.1,3.7,8.6,2.6,17-2.2,24.9-2.5,4.2-6.2,7.4-9.1,11.2-1.8,2.4-3.3,5-3.9,8.1,0,.5.1,1.2-.6,1.3-.6,0-.8-.6-1-1-3-5.2-2.3-11.5,1.7-15.9,1-1.1,2-2.2,3-3.2,5.9-6.1,8.6-13.1,6.1-21.6-1.2-4.2-3.6-7.6-7.7-9.4-.8-.4-1.9-1-2.7-.3-.8.6-.2,1.7,0,2.6.8,5.7-1,10.4-5.3,14.1-1.1,1-1.7,1-2.4-.6-1.3-3.1-5.7-5.1-8.3-4-2.2.9-4.1.4-5.3-1.5ZM304,207.7c.2.5.8,1.1.2,1.5-.5.4-1.1-.2-1.5-.5-3.9-2.7-5.6-6.5-5.9-10.2,0-5.3,1.7-9.2,3-13.3,0-.2.2-.4.4-.4.3,0,.4.2.5.4.1.4.3.9.4,1.3.8,3.2.7,6.5.6,9.8,0,3.9.7,7.7,2.3,11.3ZM257.6,180c-.2-.7-.4-1.4.6-1.6,1.1-.2,2.2-.6,3.4-.5,1.2.1,3.4,2.1,3.2,3.1-.4,1.6-1.9,1.2-3.1,1.4,0,0-.1,0-.2,0-1.9,0-3.4-.9-3.9-2.5ZM258.9,213.2c-1.2-8.6,1.3-16.1,7.2-22.5,2.9-3.1,6.4-5.6,9.3-8.7,1.9-2,3.6-4.1,4.2-6.9.2-1,.1-2,1-3.2.9,2.4,1,4.6.8,6.8-.5,4.3-2.8,7.7-5.5,10.9-3.3,3.9-6.3,7.9-7.8,12.8-1.1,3.5-2.2,6.9-3,10.4-.8,3.4-1.5,6.9-.2,10.4.2.4.7,1,0,1.3-.6.3-.9-.4-1.2-.7-3-3-4.4-6.8-4.9-10.8ZM285.4,278.1c-.2,1-.6,1.5-1.7,1.5-.6,0-1.1,0-1.7,0h0c-.3,0-.6,0-.9,0-.6,0-1.5.3-1.8-.5-.2-.6.5-1.1.9-1.6,1.7-2.1,2.8-4.5,3.4-7.2,1.6-7,3.1-14,4.7-21.1.1-.6,0-1.5.8-1.7,1.4-.4,3.8,1.5,3.9,3,.1,6.1,2.1,11.5,6.5,16,.3.3.7.5.5.9-.2.4-.7.3-1.1.3-.3,0-.6,0-.9,0-7,0-11.3,3.3-12.6,10.3ZM336.8,264.1c-1.1,9.1-7.5,14.3-14.7,14.7-9.7.5-19.5.2-29.3.2-1.4,0-1.5-.6-1-1.7,1.2-2.5,3.2-3.9,6.1-3.9,3.4,0,6.8,0,10.2,0,5.4,0,10.9-.2,16.7.3-1.4-1.5-2.8-2-4.3-2.5-3.9-1.3-7.9-2.7-11.4-4.9-5.6-3.7-9.7-8.2-9.4-15.4.3-7,6.7-11.5,13.2-9.3,1.6.5,2.7,1.7,4,2.6.9.7,1.9,1.3,3,0,1-1.1.7-2.1,0-3.2-3.6-4.7-8.2-6.6-14.1-5.3-4.3.9-9.1,5.9-13.7,5.9-2.2-.7,1.9-13.5,1.8-16.8,0-1.4-.5-2.6-1.7-3.3-1.5-.9-3.1-.2-3.1,1.6,0,.7,0,1.4-.6,1.9-1.3,1.2-1.8,2.7-2.2,4.3-1.2,5.3-2.3,10.5-3.5,15.8-1.9,8.3-3.6,16.6-6,24.8-1.2,4.3-4,7.3-8.2,8.8-2.5.9-5.1.3-7.6.5-.9,0-.8-.7-.8-1.3.3-2.3,2.3-4.4,5.1-5.1,3.9-1,4.8-2.2,4.8-6.2,0-14.4,0-28.8,0-43.3,0-2.4.3-4.8,1-7.1.1-.5.2-1.1.8-1.1.6,0,.6.6.9.9.6.9,1.1,1.8,1.8,2.7,1.3,1.8,2.9,3.2,4.8,4.2,1.5.7,1.9.4,1.8-1.2,0-.8,0-1.6,0-2.4.6-6.6,4.7-11,9.5-14.9,1-.8,1.5-.4,2.1.6,2.3,4.4,5.6,7.7,10.5,9.1.7.2,1.3.7,1.8,1.2,7.8,8.3,15.5,16.7,23.5,24.9,6.6,6.8,9.2,14.7,8.1,24.1ZM348.2,269.7c-2.2,3.1-5.2,5.4-8.6,7.1-.6.3-1.4.8-1.9.2-.5-.7.3-1.2.7-1.7,1.6-1.8,3-3.7,4.3-5.7,5.3-8.6,4.8-18.1-1.3-26.1-4.6-6-10.1-11.4-15.2-17-5.1-5.6-8.6-11.9-8.7-19.8-.1-1.3,0-2.6.3-3.9,1-5.3,3.5-9.5,8.7-11.5,3.1-1.2,6.3-.9,9,1.3,2.1,1.7,2.6,4.4,1.2,6.2-.8,1.1-1.8,1.8-3.2,1.3-1.3-.4-1.8-1.4-1.8-2.8,0-1.8-.8-2.4-2.6-2.1-3,.5-4.6,2.6-5.7,5.2-1.7,3.9-1.3,7.8.1,11.6,2.1,5.7,5.6,10.5,9.8,14.8,4.2,4.3,8.7,8.3,12.6,12.9,7.9,9.1,8.8,20.6,2.1,29.9Z"/>
  <path class="st0" d="M267.9,165.1c.6-.8,1.2-1.7,1.7-2.6.4-.6,1.5-1,1-1.8-.3-.6-1.3-.1-2-.3-1.4-.2-2.3.4-2.9,1.6-.3.6-.7,1-1,1.6-.3.8-1.6,1.4-.9,2.5.4.7,3.3-.1,3.9-1Z"/>
  <path class="st0" d="M242.7,202.9c-1-.6-2-1.3-3.3-1.4-.7,0-1-.3-1.1-1.1-.1-1.2-.8-2.2-1.4-3.2-.4-.8-.9-.7-1.3,0-.6,1-1.2,2-1.3,3.1,0,.8-.4,1.2-1.3,1.2-1.3,0-2.3.8-3.4,1.5-.7.5-.6.9,0,1.3,1,.5,1.9,1.1,3,1.2,1,0,1.4.4,1.4,1.4,0,1.2.6,2.2,1.2,3.1.5.9,1,1,1.6,0,.6-1,1.2-2,1.2-3.1,0-1,.4-1.4,1.5-1.4,1.1,0,2.1-.5,3-1.1.3-.2.6-.4.6-.8,0-.5-.4-.7-.7-.9Z"/>
  <path class="st0" d="M242.7,225.9c-1-.6-2-1.3-3.3-1.4-.7,0-1-.3-1.1-1.1-.1-1.2-.8-2.2-1.4-3.2-.4-.8-.9-.7-1.3,0-.6,1-1.2,2-1.3,3.1,0,.8-.4,1.2-1.3,1.2-1.3,0-2.3.8-3.4,1.5-.7.5-.6.9,0,1.3,1,.5,1.9,1.1,3,1.2,1,0,1.4.4,1.4,1.4,0,1.2.6,2.2,1.2,3.1.5.9,1,1,1.6,0,.6-1,1.2-2,1.2-3.1,0-1,.4-1.4,1.5-1.4,1.1,0,2.1-.5,3-1.1.3-.2.6-.4.6-.8,0-.5-.4-.7-.7-.9Z"/>
  <path class="st0" d="M234.2,253.1c0,1.2.6,2.2,1.2,3.1.5.9,1,1,1.6,0,.6-1,1.2-2,1.2-3.1,0-1,.4-1.4,1.5-1.4,1.1,0,2.1-.5,3-1.1.3-.2.6-.4.6-.8,0-.5-.4-.7-.7-.9-1-.6-2-1.3-3.3-1.4-.7,0-1-.3-1.1-1.1-.1-1.2-.8-2.2-1.4-3.2-.4-.8-.9-.7-1.3,0-.6,1-1.2,2-1.3,3.1,0,.8-.4,1.2-1.3,1.2-1.3,0-2.3.8-3.4,1.5-.7.5-.6.9,0,1.3,1,.5,1.9,1.1,3,1.2,1,0,1.4.4,1.4,1.4Z"/>
  <path class="st0" d="M197.4,202.9c-1-.6-2-1.3-3.3-1.4-.7,0-1-.3-1.1-1.1-.1-1.2-.8-2.2-1.4-3.2-.4-.8-.9-.7-1.3,0-.6,1-1.2,2-1.3,3.1,0,.8-.4,1.2-1.3,1.2-1.3,0-2.3.8-3.4,1.5-.7.5-.6.9,0,1.3,1,.5,1.9,1.1,3,1.2,1,0,1.4.4,1.4,1.4,0,1.2.6,2.2,1.2,3.1.5.9,1,1,1.6,0,.6-1,1.2-2,1.2-3.1,0-1,.4-1.4,1.5-1.4,1.1,0,2.1-.5,3-1.1.3-.2.6-.4.6-.8,0-.5-.4-.7-.7-.9Z"/>
  <path class="st0" d="M197.4,225.9c-1-.6-2-1.3-3.3-1.4-.7,0-1-.3-1.1-1.1-.1-1.2-.8-2.2-1.4-3.2-.4-.8-.9-.7-1.3,0-.6,1-1.2,2-1.3,3.1,0,.8-.4,1.2-1.3,1.2-1.3,0-2.3.8-3.4,1.5-.7.5-.6.9,0,1.3,1,.5,1.9,1.1,3,1.2,1,0,1.4.4,1.4,1.4,0,1.2.6,2.2,1.2,3.1.5.9,1,1,1.6,0,.6-1,1.2-2,1.2-3.1,0-1,.4-1.4,1.5-1.4,1.1,0,2.1-.5,3-1.1.3-.2.6-.4.6-.8,0-.5-.4-.7-.7-.9Z"/>
  <path class="st0" d="M197.4,249c-1-.6-2-1.3-3.3-1.4-.7,0-1-.3-1.1-1.1-.1-1.2-.8-2.2-1.4-3.2-.4-.8-.9-.7-1.3,0-.6,1-1.2,2-1.3,3.1,0,.8-.4,1.2-1.3,1.2-1.3,0-2.3.8-3.4,1.5-.7.5-.6.9,0,1.3,1,.5,1.9,1.1,3,1.2,1,0,1.4.4,1.4,1.4,0,1.2.6,2.2,1.2,3.1.5.9,1,1,1.6,0,.6-1,1.2-2,1.2-3.1,0-1,.4-1.4,1.5-1.4,1.1,0,2.1-.5,3-1.1.3-.2.6-.4.6-.8,0-.5-.4-.7-.7-.9Z"/>
  <path class="st0" d="M157.8,391.1h0c-.7,0-1.4,0-2-.3-.6-.2-1.1-.5-1.7-1h0c-.1-.1-.2-.2-.3-.4,0-.1-.1-.3-.1-.4h0c0-.2,0-.4.2-.6.2-.2.4-.3.6-.3h0c.2,0,.4,0,.5.2h0c.4.3.8.6,1.2.7.4.2.9.2,1.4.2h0c.4,0,.7,0,1-.2.3-.1.6-.3.8-.5.2-.2.3-.4.3-.7h0c0-.3,0-.6-.3-.8-.2-.2-.5-.4-.8-.6-.4-.1-.9-.3-1.5-.4h0c-.6,0-1-.2-1.5-.4-.4-.2-.8-.4-1.1-.6-.3-.3-.5-.6-.6-.9-.1-.4-.2-.8-.2-1.2h0c0-.7.2-1.2.5-1.7.3-.5.8-.8,1.4-1.1.6-.2,1.2-.4,1.9-.4h0c.7,0,1.3,0,1.9.3.6.2,1,.5,1.4.8h0c.3.2.4.5.4.8h0c0,.2,0,.4-.3.6-.2.2-.4.3-.6.3h0c-.2,0-.3,0-.4-.1h0c-.2-.1-.4-.3-.7-.4-.3-.1-.6-.2-.9-.3-.3,0-.6-.1-.9-.1h0c-.4,0-.8,0-1.1.2-.3.1-.5.3-.7.5-.2.2-.2.4-.2.7h0c0,.3,0,.6.3.8s.4.4.8.5c.3.1.7.2,1.2.3h0c.6.1,1.2.2,1.6.4.5.2.9.3,1.2.6.3.2.5.5.7.9.2.4.2.8.2,1.3h0c0,.7-.2,1.2-.6,1.7-.4.5-.9.9-1.5,1.1-.6.3-1.2.4-1.9.4ZM164.5,380.2h5.2c.3,0,.5,0,.7.2.2.2.3.4.3.7h0c0,.3,0,.5-.3.6-.2.2-.4.2-.7.2h-4.3v-.3c.1,0,.1,3,.1,3h-.1c0-.1,3.6-.1,3.6-.1.3,0,.5,0,.7.3.2.2.3.4.3.7h0c0,.3,0,.5-.3.6-.2.2-.4.2-.7.2h-3.6,0c0-.1,0,3,0,3h-.1c0-.1,4.3-.1,4.3-.1.3,0,.5,0,.7.3.2.2.3.4.3.6h0c0,.3,0,.5-.3.6-.2.2-.4.2-.7.2h-5.2c-.3,0-.5,0-.7-.3-.2-.2-.3-.4-.3-.7h0v-8.9c0-.3,0-.5.3-.7.2-.2.4-.3.7-.3ZM173.4,390.9h0c-.3,0-.5,0-.8-.3-.2-.2-.3-.4-.3-.7h0v-8.9c0-.3,0-.5.3-.7.2-.2.4-.3.7-.3h4.4c.5,0,1,.1,1.5.4.5.3.8.7,1.1,1.2.3.5.4,1.1.4,1.7h0c0,.4,0,.8-.2,1.2-.2.4-.4.7-.6,1-.3.3-.6.5-.9.7h0v-.3c.3.2.5.3.7.5.2.2.3.4.5.7.1.2.2.5.2.8h0c0,.3,0,.5,0,.7,0,.2,0,.4,0,.5,0,.1.1.2.3.3h0c.2.1.4.3.4.6,0,.3,0,.5-.2.7h0c-.1.1-.3.2-.4.3-.2,0-.3,0-.5,0-.2,0-.3,0-.4-.1h0c-.2,0-.3-.3-.5-.5-.2-.2-.3-.5-.4-.8-.1-.3-.2-.8-.2-1.3h0c0-.2,0-.3,0-.5,0-.2-.1-.3-.3-.4s-.3-.2-.4-.2c-.2,0-.4,0-.6,0h-3.1l.2-.3v3.3c0,.3,0,.5-.2.7-.1.2-.3.3-.6.3ZM174.3,385.8l-.2-.4h3.6c.2,0,.4,0,.5-.2.2-.2.3-.4.4-.7.1-.3.2-.6.2-1h0c0-.5-.1-.8-.4-1.1-.2-.3-.5-.5-.8-.5h-3.6l.2-.5v4.4ZM183.9,380.2h5.2c.3,0,.5,0,.7.2.2.2.3.4.3.7h0c0,.3,0,.5-.3.6s-.4.2-.7.2h-4.3v-.3c.1,0,.1,3,.1,3h-.1c0-.1,3.6-.1,3.6-.1.3,0,.5,0,.7.3.2.2.3.4.3.7h0c0,.3,0,.5-.3.6s-.4.2-.7.2h-3.6,0c0-.1,0,3,0,3h-.1c0-.1,4.3-.1,4.3-.1.3,0,.5,0,.7.3s.3.4.3.6h0c0,.3,0,.5-.3.6-.2.2-.4.2-.7.2h-5.2c-.3,0-.5,0-.7-.3-.2-.2-.3-.4-.3-.7h0v-8.9c0-.3,0-.5.3-.7.2-.2.4-.3.7-.3ZM199.9,380.2h0c.2,0,.4,0,.6.2.2.2.2.4.2.6h0v9c0,.3,0,.5-.3.7s-.4.3-.7.3h0c-.1,0-.3,0-.4,0-.1,0-.2-.1-.3-.2h0l-6.1-7.7.4-.2v7.3c0,.2,0,.5-.2.6-.2.2-.4.2-.6.2h0c-.2,0-.4,0-.6-.2-.2-.2-.2-.4-.2-.6h0v-9c0-.3,0-.5.3-.7.2-.2.4-.3.7-.3h0c.1,0,.3,0,.5,0,.2,0,.3.1.3.3h0l5.9,7.5-.3.2v-7.2c0-.2,0-.5.2-.6.2-.2.4-.2.6-.2ZM204,380.2h5.2c.3,0,.5,0,.7.2.2.2.3.4.3.7h0c0,.3,0,.5-.3.6s-.4.2-.7.2h-4.3v-.3c.1,0,.1,3,.1,3h-.1c0-.1,3.6-.1,3.6-.1.3,0,.5,0,.7.3.2.2.3.4.3.7h0c0,.3,0,.5-.3.6s-.4.2-.7.2h-3.6,0c0-.1,0,3,0,3h-.1c0-.1,4.3-.1,4.3-.1.3,0,.5,0,.7.3s.3.4.3.6h0c0,.3,0,.5-.3.6-.2.2-.4.2-.7.2h-5.2c-.3,0-.5,0-.7-.3s-.3-.4-.3-.7h0v-8.9c0-.3,0-.5.3-.7.2-.2.4-.3.7-.3ZM217.8,389.1h4.4c.3,0,.5,0,.7.2.2.2.3.4.3.7h0c0,.3,0,.5-.3.6-.2.2-.4.3-.7.2h-5c-.3,0-.5,0-.7-.3s-.3-.4-.3-.7h0v-8.9c0-.3,0-.5.3-.7.2-.2.4-.3.7-.3h0c.2,0,.5,0,.7.3.2.2.3.4.3.7h0v8.3l-.3-.3ZM232.3,380.1h0c.3,0,.5,0,.7.3.2.2.2.4.2.7h0v5.6c0,.9-.2,1.6-.6,2.3-.4.7-.9,1.2-1.5,1.6-.6.4-1.4.6-2.2.6h0c-.8,0-1.6-.2-2.2-.6-.6-.4-1.2-.9-1.5-1.6-.4-.7-.5-1.4-.5-2.3h0v-5.6c0-.3,0-.5.3-.7.2-.2.4-.3.7-.3h0c.2,0,.5,0,.6.3.2.2.3.4.3.7h0v5.6c0,.5.1,1,.3,1.3.2.4.5.7.9.9s.8.3,1.2.3h0c.4,0,.9-.1,1.2-.3s.7-.5.9-.9c.2-.4.4-.8.4-1.3h0v-5.6c0-.3,0-.5.2-.7.2-.2.4-.3.6-.3ZM242.7,380.1h0c.2,0,.4,0,.6.3.2.2.3.4.3.6h0c0,.2,0,.4-.2.6h0l-3.1,4.1-1.1-1.4,2.7-3.6c.2-.3.5-.4.8-.4ZM235.8,380.1h0c.3,0,.5.1.8.4h0l6.8,9c.1.2.2.4.2.6h0c0,.3-.1.5-.3.7-.2.2-.4.2-.6.2h0c-.3,0-.6-.1-.8-.4h0l-6.8-9c-.1-.2-.2-.4-.2-.6h0c0-.3,0-.5.3-.7.2-.2.4-.3.6-.3ZM235.7,391h0c-.2,0-.4,0-.6-.2-.2-.2-.2-.4-.2-.6h0c0-.2,0-.4.2-.6h0l3.1-4.2,1,1.5-2.8,3.8c-.2.3-.5.4-.8.4ZM252.9,380.1h0c.3,0,.5,0,.7.3.2.2.2.4.2.7h0v5.6c0,.9-.2,1.6-.6,2.3-.4.7-.9,1.2-1.5,1.6-.6.4-1.4.6-2.2.6h0c-.8,0-1.6-.2-2.2-.6-.6-.4-1.1-.9-1.5-1.6-.4-.7-.5-1.4-.5-2.3h0v-5.6c0-.3,0-.5.3-.7.2-.2.4-.3.7-.3h0c.2,0,.5,0,.6.3.2.2.3.4.3.7h0v5.6c0,.5.1,1,.3,1.3.2.4.5.7.9.9s.8.3,1.2.3h0c.4,0,.9-.1,1.2-.3s.7-.5.9-.9c.2-.4.4-.8.4-1.3h0v-5.6c0-.3,0-.5.2-.7s.4-.3.6-.3ZM257.2,390.9h0c-.3,0-.5,0-.8-.3-.2-.2-.3-.4-.3-.7h0v-8.9c0-.3,0-.5.3-.7.2-.2.4-.3.7-.3h4.4c.5,0,1,.1,1.5.4.5.3.8.7,1.1,1.2.3.5.4,1.1.4,1.7h0c0,.4,0,.8-.2,1.2-.2.4-.4.7-.6,1-.3.3-.6.5-.9.7h0v-.3c.3.2.5.3.7.5.2.2.3.4.4.7.1.2.2.5.2.8h0c0,.3,0,.5,0,.7,0,.2,0,.4,0,.5,0,.1.1.2.3.3h0c.2.1.4.3.4.6,0,.3,0,.5-.2.7h0c-.1.1-.3.2-.4.3-.2,0-.3,0-.5,0-.2,0-.3,0-.4-.1h0c-.2,0-.4-.3-.5-.5-.2-.2-.3-.5-.4-.8-.1-.3-.2-.8-.2-1.3h0c0-.2,0-.3,0-.5,0-.2-.1-.3-.3-.4-.1-.1-.3-.2-.4-.2-.2,0-.4,0-.6,0h-3.1l.2-.3v3.3c0,.3,0,.5-.2.7-.1.2-.3.3-.6.3ZM258.1,385.8l-.2-.4h3.6c.2,0,.4,0,.5-.2.2-.2.3-.4.4-.7.1-.3.2-.6.2-1h0c0-.5-.1-.8-.4-1.1-.2-.3-.5-.5-.8-.5h-3.6l.2-.5v4.4ZM273.3,380.1h0c.2,0,.4,0,.6.3.2.2.3.4.3.7h0c0,0,0,.2,0,.3,0,0,0,.2-.1.3h0l-3.5,5,.3-1.1v4.4c0,.3,0,.5-.3.7s-.4.3-.6.3h0c-.3,0-.5,0-.7-.3-.2-.2-.3-.4-.3-.7h0v-4.3.5c.1,0-3.2-4.4-3.2-4.4-.1-.1-.2-.3-.2-.4,0-.1,0-.2,0-.3h0c0-.3.1-.5.3-.7.2-.2.4-.3.7-.3h0c.3,0,.5.1.8.4h0l3,4.1h-.4c0,0,2.7-4.1,2.7-4.1.2-.3.5-.5.8-.5Z"/>
  <path class="st0" d="M82.2,369.6l-.2-4.1,4.3-.8v-9.1c0-.5,0-.9-.1-1,0-.1-.4-.4-.9-.7h0l-3.3-1.8.4-2.7,7.5-2.2,3.3.3v15.8c0,.6,0,1,0,1.2,0,.2.3.3.7.5h0l2.9,1.5v3.1h-14.6ZM109.3,370.4c-3.6,0-6.3-1-8.1-2.9-1.8-2-2.7-4.8-2.7-8.6h0c0-2.2.5-4.1,1.6-5.9,1.1-1.7,2.6-3.1,4.5-4,1.9-1,4.1-1.5,6.5-1.5h0c3.6,0,6.3,1,8.1,2.9s2.8,4.9,2.8,8.7h0c0,2.2-.5,4.1-1.6,5.8-1.1,1.7-2.6,3-4.5,4s-4.1,1.5-6.6,1.5h0ZM110.7,365.4c1.1,0,2.2-.2,3.2-.6h0c.2-.6.4-1.4.5-2.4.1-1,.2-2,.2-3h0c0-2.2-.4-3.9-1.2-5.1-.8-1.2-2.1-1.7-3.7-1.7h0c-.8,0-1.9.1-3.3.4h0c-.4.7-.6,2.4-.6,5.2h0c0,2.3.4,4.1,1.3,5.3.8,1.2,2,1.9,3.6,1.9h0ZM145,370.2c-4.5,0-7.8-1.1-10-3.4-2.2-2.3-3.3-5.7-3.3-10.3h0c0-3,.5-5.6,1.6-7.8,1.1-2.2,2.7-3.9,4.7-5.1,2-1.2,4.5-1.8,7.3-1.8h0c9,0,13.5,4.6,13.5,13.7h0c0,3-.6,5.6-1.7,7.8-1.1,2.2-2.7,3.8-4.8,5-2.1,1.2-4.6,1.7-7.4,1.7h0ZM145.8,364.6c1.5,0,3-.4,4.4-1.2h0c.3-.8.5-1.9.7-3.1.2-1.3.2-2.5.2-3.7h0c0-3-.6-5.2-1.7-6.8-1.1-1.5-2.7-2.3-4.9-2.3h0c-1.5,0-3,.3-4.4.8h0c-.3.5-.5,1.4-.7,2.5-.2,1.2-.2,2.5-.2,4h0c0,3.1.6,5.5,1.7,7.2,1.1,1.7,2.8,2.5,4.9,2.5h0ZM161.7,369.6l-.2-3.8,2.5-.7v-9.7c0-.6,0-1-.1-1.1,0-.2-.3-.4-.6-.6h0l-1.8-1v-3c.1,0,1-.2,1-.2,3.5-.7,6.1-1.1,7.6-1.1h0c.2.6.4,1.2.5,1.9h0c1.6-.7,3-1.3,4-1.6,1-.3,2-.4,2.9-.4h0c4.3,0,6.4,2.6,6.4,7.7h0v7.9c0,.6,0,.9.1,1.1,0,.2.3.4.7.6h0l1.9,1.1-.2,3h-11.1l-.2-3.8,2-.6v-7.6c0-1.2,0-2.1-.1-2.5,0-.5-.3-.9-.7-1.1s-1-.4-1.9-.4h0c-1,0-2.2.1-3.7.4h0v9.8c0,.6,0,.9.1,1.1,0,.2.3.4.7.6h0l2,1.1-.2,3h-11.7ZM197,369.6l-.2-4.1,2.9-.8v-15.3c0-.7,0-1.2-.2-1.4-.1-.2-.4-.4-.9-.6h0l-2.1-1.2.2-3.3c2-.3,4-.6,5.8-.7,1.8-.1,3.8-.2,5.9-.2h0c2.9,0,5.2.3,7,.9,1.8.6,3.1,1.6,3.9,2.9.8,1.3,1.2,3.1,1.2,5.2h0c0,2.8-1,5-3,6.6-2,1.6-4.8,2.4-8.3,2.4h-2.2c0,0,0,3,0,3,0,.6,0,1.1.1,1.2,0,.2.3.4.7.6h0l2.5,1.5-.2,3.3h-13.2ZM209.6,355.6c1.4,0,2.5-.1,3.2-.4h0c.3-1.3.4-2.7.4-4.1h0c0-1.6-.3-2.7-.9-3.4-.6-.7-1.6-1-2.9-1h0c-.5,0-1.3,0-2.4.2h0v8.6c.7.2,1.6.2,2.6.2h0ZM228.8,370.1c-1.8,0-3.3-.5-4.4-1.5-1.1-1-1.6-2.3-1.6-3.9h0c0-2.1,1.1-3.8,3.2-5,2.1-1.2,5.2-1.9,9.3-2h0c0-1.3-.1-2.2-.3-2.8-.2-.6-.6-1-1.1-1.2-.5-.2-1.3-.3-2.4-.3h0c-1.1,0-1.9,0-2.3.1h0l-1.6,3.3-3-.2c-.5-2.1-.8-4.4-1-6.7h0c1.5-.5,3.1-.9,4.9-1.2,1.8-.3,3.5-.4,5-.4h0c2.8,0,4.9.6,6.1,1.7,1.2,1.1,1.9,3,1.9,5.5h0v8.4c0,.5,0,.8.1,1,0,.2.3.4.6.6h0l1.6.9-.2,2.5c-3.1.7-5.6,1.1-7.4,1.2h0c0-.2-.1-.5-.2-.9-.1-.4-.2-.8-.3-1.2h0c-1.1.7-2.2,1.2-3.5,1.6-1.2.4-2.4.6-3.6.6h0ZM231.5,365.6c1.1,0,2.4-.4,3.9-1.1h0l-.2-3.1c-.6,0-1.1,0-1.3,0h0c-.7,0-1.6,0-2.5.2-1,.1-1.7.3-2.3.5h0c0,.3-.1.7-.1,1h0c0,.8.2,1.4.7,1.9.4.4,1.1.7,1.8.7h0ZM253.2,370.2c-2.1,0-3.7-.6-4.8-1.9-1.1-1.3-1.6-3.2-1.6-5.8h0v-7.2c0-.6,0-1-.1-1.1,0-.2-.3-.4-.7-.6h0l-1.8-1,.2-3c.4,0,.6-.1.8-.2h0c.3,0,1.4-.2,3.2-.6,1.8-.3,3.3-.5,4.5-.6h0c.3.7.5,1.5.7,2.3h0v10.1c0,1.2,0,2,0,2.5,0,.5.3.8.7,1.1.4.3,1,.4,1.9.4h0c1.3,0,2.5-.2,3.8-.7h0v-8.8c0-.6,0-1-.1-1.1,0-.2-.3-.4-.7-.6h0l-1.8-1,.2-3c2.2-.4,3.9-.7,5.1-.9,1.2-.2,2.3-.3,3.4-.4h0c.3.7.5,1.5.7,2.3h0v13.2c0,.5,0,.8.1,1,0,.2.3.4.6.6h0l1.6.9v2.5c-1.3.3-2.6.6-4.1.8-1.5.2-2.9.4-4.2.4h0c-.1-.3-.2-.7-.4-1.2h0c0-.2,0-.5-.2-.8h-.1c-1.1.6-2.3,1.2-3.5,1.6-1.2.4-2.3.6-3.3.6h0ZM270.3,369.6v-3.7c-.1,0,2.7-.9,2.7-.9v-19.3c0-.6,0-1-.1-1.1,0-.2-.3-.4-.7-.6h0l-1.8-.9.2-3.1c.5-.1,1-.2,1.2-.2h0c3.5-.6,6-1,7.4-1.1h0c.3.6.4,1.3.5,2.1h0v22.8c0,.6,0,.9.1,1.1,0,.2.3.4.7.6h0l2,1.1-.2,3h-12.1ZM287.3,346l-1.7-6.2,6.9-1.8,1.6,6.1-6.8,1.9ZM284.1,369.6v-3.7c-.1,0,2.7-.9,2.7-.9v-9.8c0-.6,0-1-.1-1.1,0-.2-.3-.4-.7-.6h0l-1.8-1,.2-3c2.2-.4,4-.7,5.2-1,1.2-.2,2.3-.3,3.4-.3h0c.4,1.2.6,2,.7,2.6h0v12.9c0,.6,0,.9.1,1.1,0,.2.3.4.7.6h0l2,1.1-.2,3h-12.1ZM298.2,369.6l-.2-3.8,2.5-.7v-9.7c0-.6,0-1-.1-1.1,0-.2-.3-.4-.7-.6h0l-1.8-1v-3c.1,0,1-.2,1-.2,3.5-.7,6.1-1.1,7.6-1.1h0c.2.6.4,1.2.5,1.9h0c1.6-.7,3-1.3,4-1.6,1-.3,2-.4,2.9-.4h0c4.3,0,6.4,2.6,6.4,7.7h0v7.9c0,.6,0,.9.1,1.1,0,.2.3.4.7.6h0l1.9,1.1-.2,3h-11.1l-.2-3.8,2-.6v-7.6c0-1.2,0-2.1-.1-2.5,0-.5-.3-.9-.7-1.1-.4-.3-1-.4-1.9-.4h0c-1,0-2.2.1-3.7.4h0v9.8c0,.6,0,.9.1,1.1,0,.2.3.4.6.6h0l2,1.1-.2,3h-11.7ZM332.8,378.8c-3.1,0-5.4-.5-7-1.5s-2.4-2.4-2.4-4.3h0c0-2,.9-3.7,2.7-5.2h0c-.6-.6-.8-1.2-.8-1.9h0c0-1,.6-2.3,1.9-4.1h0c-2.2-1.2-3.3-3.1-3.3-6h0c0-2.5.8-4.4,2.5-5.7,1.7-1.4,4.1-2,7.3-2h0c2.2,0,4.1.3,5.5,1h0l4.8-1.5h1.9v5.8h-3.1c.1.7.2,1.3.2,2h0c0,2.5-.8,4.4-2.5,5.6-1.7,1.3-4.1,1.9-7.3,1.9h0c-1.1,0-2.1,0-3-.2h0v.6c0,.4.2.7.5.9.4.2,1.2.3,2.4.5h0l3.6.5c2.8.4,4.8,1.1,5.9,2.1,1.1,1,1.6,2.3,1.6,3.8h0c0,2.4-1,4.3-3,5.6-2,1.3-4.8,2-8.5,2h0ZM333.8,359.1c.6,0,1.2,0,1.9-.2h0c.1-.3.2-.8.3-1.5,0-.6.1-1.2.1-1.8h0c0-1.2-.3-2.1-.8-2.7-.5-.6-1.3-.9-2.4-.9h0c-.5,0-1.1,0-1.8.2h0c-.1.3-.2.8-.3,1.4,0,.6-.1,1.2-.1,1.8h0c0,1.2.3,2.2.8,2.7.5.6,1.3.9,2.3.9h0ZM334.7,374.3c1.2,0,2.2-.1,2.8-.3h0c.2-.3.2-.8.2-1.3h0c0-.6-.2-1.1-.7-1.5-.5-.3-1.3-.6-2.5-.8h0l-1.3-.2c-1.2-.1-2.4-.3-3.6-.6h0c-.2.7-.2,1.3-.2,1.7h0c0,1,.4,1.7,1.3,2.1.9.5,2.2.7,3.9.7h0Z"/>
</svg>