<svg xmlns="http://www.w3.org/2000/svg" viewBox="73.5030762939453 56.94500732421875 427.99383544921875 461.11000061035156"> <svg xmlns="http://www.w3.org/2000/svg" xmlns:xlink="http://www.w3.org/1999/xlink" version="1.1" id="Layer_1" x="143.5030762939453" y="126.94500732421875" viewBox="-0.0021963119506835938 -0.0000362396240234375 856.8775634765625 765.68017578125" xml:space="preserve" height="257.34268387658517" width="287.99383544921875" preserveAspectRatio="xMinYMin" enable-background="new 0 0 856.88 765.67" style="overflow: visible;"><path d="M528.67,682.59c-12.72,11.71-28.11,18.7-42.98,25.46l-2.56,1.16c-16.82,7.63-32.68,14.83-45.76,26.88   c-3.99,3.66-8.83,3.72-12.95,0.19c-15.61-13.51-33.94-21.75-53.34-30.49l-4.93-2.22c-20.84-9.44-35.5-20.15-46.13-33.69   c-4.93-6.27-8.58-12.35-11.1-18.49h-20.44c8.54,20.47,22.53,37.62,42.7,52.32c14.42,10.51,30.74,17.76,43.35,22.9   c23.12,9.43,41.49,22.21,56.16,39.07c13.55-14.98,29.46-26.64,47.31-34.69c3.24-1.45,6.49-2.87,9.74-4.29   c7.8-3.4,15.87-6.92,23.47-10.88c30.6-15.99,50.63-37.07,61.2-64.42h-20.24C546.86,664.73,536.93,675,528.67,682.59z" style="fill: #e3d295;"></path><path d="M479.9,603.52c-12.61,0.14-25.23,0.06-37.84,0.05c-5.34,0-5.36-0.01-5.36-5.42c0-41.75,0.01-117.94,0.01-159.69   c0-1.68-0.01-12.37-0.02-25.56c2.71-0.14,4.8-1.26,5.76-4.11c1.11-3.3,0.41-6.21-2.45-8.43c-1.08-0.84-2.36-1.52-2.55-3.1   c-0.09-0.74-0.37-1.24-0.77-1.57c0-2.71,0-5.41,0-8.07c1.83-0.01,3.66-0.04,5.48-0.15c4.85-0.29,7.89-3.19,8.61-7.58   c0.52-3.19-0.36-6.05-2.94-8.12c-2.42-1.95-5.03-2.14-7.68-0.31c-0.8,0.55-1.68,0.73-2.6,0.78c-0.44-6.27,2.14-21.93,8.11-24.17   c0.69-0.26,1.3-0.78,1.92-1.21c7.19-4.96,8.42-14.03,2.94-20.85c-2.68-3.33-6.31-4.88-10.23-6.05c-2.18-0.65-4.47-7.44-3.19-9.29   c0.51-0.74,1.27-0.73,2.04-0.55c1.35,0.32,2.67,0.76,4.03,1.01c15.72,2.91,29.89-0.67,42.05-10.97   c21.31-18.04,29.81-53.51,8.99-81.3c-8.13-10.86-18.75-18.28-32.13-20.22c-5.64-0.82-7.91-2.79-10-7.73   c-5.35-12.64-18.17-19.45-31.01-16.87c-11.3,2.26-18.18,9.74-22.02,20.27c-0.76,2.09-1.35,3.72-4.2,3.97   c-14.82,1.25-26.78,8.32-35.58,19.91c-13.45,17.71-16.43,37.62-8.22,58.28c6.27,15.78,17.01,27.91,33.94,33.37   c9.02,2.91,18.07,3.01,27.25,1.07c1.12-0.24,2.79-1.33,3.32,0.29c0.78,2.41,0.15,5.03-0.32,7.48c-0.34,1.77-2.25,1.24-3.52,1.55   c-6.73,1.63-12,7.13-12.81,13.41c-0.78,6.09,2.49,12.61,8.89,15.28c5.57,2.32,7.83,17.19,7.28,22.95c-0.01,0.08,0,0.14-0.01,0.21   c-0.74-0.16-1.46-0.4-2.19-0.77c-5.08-2.56-10.45,0.71-10.69,6.42c-0.23,5.4,3.4,9.41,9.34,9.76c1.48,0.09,2.96,0.12,4.44,0.13   c0,3.01,0,6.1,0,9.28c-0.53,1.93-2.33,2.66-3.55,3.95c-2.01,2.12-3.19,4.52-2.02,7.54c1.05,2.71,2.86,4.19,5.57,4.43   c0,54.67,0,158.86,0,193.35h-0.09c0,19.43,0,38.86,0,58.29c0,5.37,4.12,9.86,9.47,10.27c0.07,0.01,0.14,0.01,0.21,0.02   c5.99,0.45,11.12-4.25,11.12-10.26c0-1.17,0-2.33,0.01-3.5c0.02-4.16,0.62-4.48,4.96-4.47c13.36,0.02,26.73-0.13,40.09-0.14   c2.45,0,3.17-1.07,2.5-4.58c-0.43-2.25-0.45-4.57,0.01-6.82c0.74-3.66-0.39-4.99-3.02-4.98c-2.4,0.01-11.65-0.08-14.04-0.01   c-2.7,0.08-3.83-1.07-2.98-5.18c0.61-2.94,0.52-5.98-0.04-8.93c-0.74-3.89,0.06-5.37,2.9-5.28c2.39,0.08,11.64-0.05,14.04-0.01   c2.68,0.04,3.64-1.35,3.3-4.34c-0.31-2.7-0.13-5.42,0.1-8.13C484.8,604.51,483.32,603.48,479.9,603.52z M461.26,242.11   c3.1,3.52,4.92,7.59,4.68,12.09c-0.07,8.68-4.78,14.88-12.18,16.89c-7.09,1.92-14.33-3.88-17.6-9.12   c-0.78-1.25,0.13-1.71,0.92-2.41c5.75-5.05,5.89-11.11-0.03-15.96c-2.85-2.34-2.09-3.67,0.22-5.49   C443.92,232.85,454.61,234.57,461.26,242.11z M413.88,204.88c0.06-9.31,6.65-16.04,14.28-14.58c7.53,1.45,12.76,11.2,10.25,19.55   c-1.93,6.4-6.08,11.53-10.28,16.58c-0.85,1.02-1.8,1.33-2.91,0.33C421.22,223.17,413.27,213.04,413.88,204.88z M413.16,236.54   c0.8,0.34,1.58,0.8,2.28,1.32c2.24,1.66,3.72,2.87,0.2,5.32c-6.31,4.39-6.54,11.04-0.95,16.38c1.67,1.59,1.86,2.64,0.32,4.33   c-3.64,4.01-7.56,7.43-11.94,7.68c-9.16,0.08-15.46-6.57-16.24-15.72C385.5,240.2,401.97,231.84,413.16,236.54z M401.43,299.28   c-1.94,0-3.89-0.15-5.85-0.47c-11.53-1.86-21.96-9.05-28.62-19.73c-10.29-16.51-8.96-37.96,3.31-53.39   c5.94-7.47,14.41-12.15,25.9-14.31c2.11-0.39,4.41,0.72,6.33,3.05c0.76,0.92,3.15,4.16,1.94,7.22c-1.02,2.59-3.47,2.73-4.39,2.79   c-0.15,0.01-0.3,0.01-0.44,0.04c-12.69,2.98-20.8,10.32-24.1,21.82c-2.44,8.49-0.95,17.77,4.07,25.47   c4.48,6.86,11.07,11.34,18.1,12.29c8.89,1.21,16.51-1.8,23.27-9.2l0.12-0.13c1.86-2.04,3.1-3.39,5.05-3.42c0.02,0,0.04,0,0.06,0   c1.94,0,3.21,1.31,5.3,3.46c9.06,9.34,19.56,11.82,30.39,7.17c6.33-2.71,11.59-8.4,14.44-15.61c3.09-7.83,3.05-16.47-0.13-23.72   c-4.22-9.62-11.44-15.56-22.07-18.16c-0.24-0.06-0.5-0.07-0.77-0.1c-1.14-0.11-3.04-0.31-4.14-1.97c-0.75-1.14-0.86-2.6-0.31-4.34   c0.1-0.32,0.19-0.66,0.28-1c0.56-2.08,1.87-6.96,7.87-5.86c9.04,1.67,16.75,5.64,22.92,11.79c9.08,9.06,13.67,21.21,12.93,34.22   c-0.76,13.36-7.15,25.75-17.55,34c-6.92,5.48-14.91,8.06-23.12,7.48c-9.37,0.52-17.51-2.26-24.76-8.49   c-0.49-0.42-0.74-0.53-0.81-0.56c-0.01,0.02-0.23,0.12-0.63,0.46C418.77,296.11,410.21,299.28,401.43,299.28z M426.02,337.92   c0-0.01,0-0.02,0-0.04c-4.7,0-9.4,0.12-14.1-0.03c-4.74-0.16-5.97-2.54-3.42-6.55c2.01-3.16,4.8-5.37,8.72-5.43   c6.2-0.09,12.4-0.02,18.6,0.03c2.57,0.02,4.75,1.1,6.56,2.86c1.95,1.88,3.72,4.06,2.87,6.92c-0.97,3.26-4.01,2.1-6.27,2.19   C434.67,338.04,430.34,337.92,426.02,337.92z" style="fill: #e3d295;"></path><path d="M290.61,232.54c0.46-0.04,0.95-0.06,1.49-0.05l0.42,0.01c1.58,0,3.16-0.01,4.74-0.02c4.98-0.03,10.13-0.06,15.24,0.19   c1.06,0.06,1.6-0.05,1.81-0.11c0.08-0.23,0.22-0.8,0.23-2.01c0.03-4.42,0-8.83-0.03-13.25c-0.06-9.65-0.11-19.63,0.4-29.52   c0.29-5.99,3.05-9.13,8.95-10.19c25.72-4.63,43.23-12.57,56.77-25.71c3.61-3.5,6.82-7.37,10.23-11.47c1.06-1.27,2.11-2.54,3.18-3.8   c9.59-11.3,21.96-17.54,34.85-17.57c0.04,0,0.07,0,0.11,0c12.68,0,24.84,6.04,34.25,17.01c9.38,10.92,17.41,19.78,28.08,26.24   c13.05,7.88,26.98,12.84,41.42,14.73c7.24,0.93,10.63,4.81,10.35,11.84c-0.18,4.85-0.14,9.84-0.1,14.68   c0.02,2.15,0.04,4.29,0.04,6.44v4.34h-0.18c0,0.68,0,1.36,0.01,2.03c0.02,5.08,0.04,10.33-0.06,15.5c-0.01,0.31,0,0.54,0.02,0.73   c0.14,0.01,0.32,0.01,0.53,0.01c3.94-0.09,7.92-0.07,11.77-0.05c3.35,0.01,6.71,0.03,10.06-0.02c0.23,0,0.47-0.01,0.72-0.01   c0.87,0,1.84,0.04,2.78,0.28c3.47-5.21,8.17-10.84,13.33-15.32c-0.43-0.07-1.23-0.08-1.53-0.08l-2.76,0   c-2.81,0.01-5.61,0.01-8.41-0.02c-9.16-0.09-11.4-2.35-11.43-11.51l-0.02-3.8c-0.06-11.89-0.12-24.18,0.02-36.3   c0.01-1.49-0.2-2.06-0.26-2.2c-0.04,0.03-0.38-0.07-1.12-0.07c-0.16,0-0.34,0-0.54,0.01c-5.67,0.31-11.17-0.5-16.49-1.28l-2-0.29   c-7.04-1.01-13.6-2.58-19.74-4.7c0.43-13.83,2.41-27.46,5.34-40.97c4.83-22.23,12.45-43.33,25.62-62.11   c2.3-3.28,4.91-6.33,7.38-9.47c-0.9-0.83-1.78-0.73-2.63-0.76c-7.67-0.23-15.22,0.55-22.66,2.43   c-12.72,3.21-23.56,9.21-30.76,20.65c-0.51,0.81-0.98,1.98-2.13,1.74c-1.24-0.26-0.85-1.63-1.09-2.51   c-3.08-11.6-12.63-18.43-24.52-17.55c-4.54,0.34-8.29,2.62-12.88,5.49c1.95-4.99,3.78-8.94,6.08-12.67   c0.96-1.55,0.68-2.08-1.15-2.26c-8.23-0.81-14.52-5.09-19.57-11.36c-5.96-7.39-9.64-16-12.93-24.8c-0.39-1.05-0.38-2.37-1.87-3.08   c-2.65,7.22-5.43,14.22-9.17,20.74c-5.52,9.63-12.5,17.49-24.48,18.67c-2.44,0.24-2.14,1.09-1.17,2.76   c2.04,3.55,3.89,7.21,5.81,10.82c-7.8-4.15-15.37-5.92-23.68-2.77c-8.66,3.29-11.74,10.87-14.4,19.17   c-14.83-21.19-36.06-25.58-59.97-25.68c0.72,1.19,0.9,1.65,1.22,1.98c13.57,14.11,21.63,31.28,27.78,49.57   c6.68,19.87,10.29,40.25,11.12,61.12c-11.59,4.48-24.85,6.91-40.37,7.44c-0.73,0.02-1.89,0.06-2.72,0.14   c-0.05,0.84-0.05,1.94-0.05,2.4c0,3.33,0,6.66-0.01,9.99c-0.01,9.82-0.03,19.98,0.24,29.93c0.1,3.88-0.82,6.69-2.8,8.61   c-2.91,2.83-7.15,2.59-8.55,2.53c-2.77-0.14-5.55-0.08-8.5,0c-1.1,0.03-2.2,0.05-3.31,0.07   C282.33,221.89,287.11,227.51,290.61,232.54z M382.78,125.73c-1.03,1.15-2.03,2.31-3.05,3.47c-3.21,3.68-6.52,7.45-10.24,10.91   c-0.63,0.17-1.28,0.34-1.94,0.49c-2.64,0.58-5.26,1.23-7.87,1.93c-2.32,0.62-3.54-0.09-3.57-2.59c-0.03-2.91-0.08-10.66-1.58-13.49   c-1.13-2.12,1.03-2.57,2.59-2.94c11.4-2.67,22.88-4.89,34.51-6.32C388.58,119.68,385.63,122.52,382.78,125.73z M505.72,128.74   c-0.43,1.9-1.62,9.69-1.65,11.64c-0.05,2.68-1.02,3.29-3.66,2.67c-4.63-1.09-9.16-2.76-13.68-4.54c-2.79-2.67-5.45-5.54-7.96-8.65   c-2.91-3.64-6.4-7.01-9.75-10.11c-1.11-1.03-2.24-1.99-3.39-2.92c12.28,1.34,24.47,3.44,36.6,6.21   C506.84,124.1,506.76,124.14,505.72,128.74z M494.29,82.72c3.14-0.15,6.02,2.76,6.11,6.17c0.09,3.24-2.52,5.96-5.75,5.99   c-3.14,0.03-5.78-2.61-5.91-5.91C488.61,85.73,491.15,82.87,494.29,82.72z M454.79,78.8c2.86,0.12,5.44,2.96,5.42,5.96   c-0.02,3.09-2.56,5.79-5.51,5.84c-3.11,0.05-5.93-2.8-5.85-5.91C448.93,81.53,451.81,78.68,454.79,78.8z M406.85,78.91   c2.88,0.06,5.52,2.84,5.54,5.82c0.02,3.17-2.64,5.98-5.75,6.07c-3.18,0.09-6-2.64-5.93-5.75   C400.79,81.79,403.72,78.85,406.85,78.91z M365.84,82.74c3.11,0.05,5.93,3.08,5.96,6.39c0.03,3.15-2.38,5.48-5.68,5.5   c-3.31,0.02-5.95-2.52-5.97-5.74C360.13,85.77,362.98,82.69,365.84,82.74z M331.95,63.35c-0.24-0.39-0.37-0.86-0.84-2   c6.77,2.26,11.84,5.91,16.34,10.48c0.6,0.61,1.05,1.39,1.68,1.97c2.59,2.37,2.65,4.49,1.11,7.93c-3.43,7.68-1.45,17.67,6.71,23.25   c6.53,4.47,15.96,3.13,21.58-2.92c6.25-6.74,6.48-16.61,0.56-23.99c-3.52-4.39-3.79-6.22-1.44-10.01   c2.27-3.67,6.16-5.44,10.44-4.74c3.71,0.6,7.02,4.06,7.8,8c0.33,1.68-0.45,2.78-1.5,3.92c-5.34,5.78-6.24,14.72-2.14,20.8   c4.15,6.16,12.37,8.35,20.54,5.48c6.66-2.34,11.64-10.35,10.52-17.75c-1.53-10.13-5.74-19.35-10.98-28.05   c-1.88-3.12-1.79-4.33,1.67-6.21c6.79-3.69,10.9-10.15,14.75-16.66c0.49-0.82,0.59-2.09,1.77-2.14c1.25-0.06,1.34,1.24,1.78,2.07   c3.88,7.31,8.79,13.7,16.34,17.56c2.37,1.21,1.25,2.31,0.38,3.75c-5.57,9.24-10.05,18.95-11.46,29.77   c-0.9,6.87,2.8,13.96,8.38,16.86c6.5,3.38,15.04,2.53,20.12-2c6.05-5.39,6.82-15.12,1.77-22.25c-3.33-4.7-3.52-6.34-1.09-9.36   c2.9-3.6,7.51-4.89,11.61-3.11c3.7,1.6,5.72,4.51,6.26,8.5c0.21,1.58-0.21,2.69-1.43,3.89c-10.38,10.25-6.48,26.42,7.33,30.68   c9.67,2.98,20.54-4.64,21.24-14.94c0.29-4.23,0.02-8.39-2.04-12.24c-0.54-1.02-0.95-2.03-0.19-3.11   c4.92-6.98,10.99-12.47,19.6-15.24c0.28,1.51-0.22,2.24-0.7,2.94c-10.33,14.92-14.61,32.17-18.82,49.4   c-0.7,2.87-1.45,3.51-4.31,2.82c-17.16-4.13-34.45-6.51-51.83-7.55c-5.71-2.69-11.74-4.37-18.06-4.98   c-11.67-1.13-22.23,0.62-31.87,5.32c-0.92,0.06-1.83,0.11-2.75,0.18c-15.24,1.08-30.21,3.9-45.06,7.35   c-2.53,0.59-3.55,0.44-4.17-2.49C347.72,96.44,341.57,79.22,331.95,63.35z" style="fill: #e3d295;"></path><path d="M303.51,604.24c-3.11-6.13-7.67-11.49-13.42-15.3c-2.73-1.81-5.82-3.44-7.35-6.33c-1.21-2.28-1.24-4.99-1.24-7.57   c-0.01-26.51-0.01-53.01-0.02-79.52c0-3.91,0.02-7.93,1.48-11.56c1.65-4.07,4.93-7.21,7.9-10.44   c30.86-33.57,30.42-91.19-0.95-124.28c10.77-0.72,20.45-9.58,22.12-20.24c0.75-4.81,0.04-9.79,1.16-14.53   c2.04-8.65,9.91-15.41,10.54-24.28c0.64-9.08-6.62-16.84-14.41-21.55c-7.79-4.71-16.71-7.76-23.35-13.98   c-6.23-5.83-9.81-13.87-14.54-20.97c-9.71-14.59-25.21-25.69-42.56-28.15s-36.21,4.55-46.21,18.93c-2.11,3.04-3.84,6.37-6.33,9.12   c-2.09,2.32-4.65,4.15-7.11,6.07c-28.55,22.38-43.74,60.65-38.3,96.52c2.57,16.92,9.31,33,11.77,49.93   c2.46,16.94-0.39,36.22-13.49,47.24c4.63-16.58,5.67-34.55,0.28-50.9c-5.4-16.35-17.84-30.81-34.19-36.19   c-27.7-9.11-74.08,27.58-40.04,49.82c11.08,7.24,28.09,2.36,33.64-9.65c8.12,23.51-5.19,49.23-22.26,67.32   c-17.06,18.09-38.37,32.44-52.01,53.24C0.63,528.3-3.93,555.85,3.6,580.22s27.37,44.85,51.84,52.04c13.28,3.91,27.35,4,41.19,4.06   c69.77,0.31,139.54,0.62,209.31,0.92C309.86,626.56,308.66,614.36,303.51,604.24z M295.18,426.08   c-1.67,11.89-5.75,23.29-14.67,32.14c-1.02,1-1.97,2.93-3.65,2.08c-1.93-0.98-0.41-2.76,0.04-3.99c4.01-10.37,1.84-20.73-0.5-30.88   c-2.43-10.48-5.71-20.79-8.88-31.08c-4.51-14.67-13.41-26.71-23.22-38.22c-8.09-9.48-14.87-19.64-16.34-32.49   c-0.74-6.6-0.46-12.98,2.28-20.25c2.69,3.54,2.43,6.66,3.1,9.53c1.91,8.2,6.92,14.52,12.54,20.4c8.77,9.14,19.1,16.6,27.73,25.89   C291.27,378.16,298.76,400.54,295.18,426.08z M298.91,327.42c-1.43,4.54-5.88,7.29-11.61,7.31c-0.17-0.02-0.35,0.02-0.5-0.02   c-3.41-0.72-8.03,0.5-9.16-4.21c-0.72-2.95,5.86-8.92,9.53-9.33c3.45-0.39,6.73,0.67,10,1.37   C300.02,323.13,299.54,325.43,298.91,327.42z M165.82,265.9c13.39-16.95,30.75-26.48,52.95-25.98c8.72,0.19,16.62,2.54,23.83,7.36   c1.95,1.3,3.93,2.56,6.34,4.12c0.54-2.89-0.87-4.51-2.04-6.18c-7.05-9.85-17.34-13.59-28.78-14.84c-4.32-0.48-8.77-0.02-13.15-0.09   c-1.41-0.02-3.54,0.91-4.04-0.89c-0.52-1.87,1.76-2.15,3.04-2.69c10.07-4.25,20.38-4.6,30.71-1.26   c13.32,4.3,22.68,12.44,24.89,27.04c0.26,1.63,0.85,3.1,2.5,3.52c8.62,2.08,14.52,8.35,21.14,13.52   c6.79,5.3,13.72,10.42,20.4,15.84c5.1,4.12,5.4,12.74,1.06,19.7c-3.49,5.64-9.14,7.18-15.78,4.34c-7.64-3.28-20.92,2.8-24.72,12   c-1.95,4.73-3.69,4.62-7.08,1.71c-12.93-11.13-18.25-25.07-15.86-42.01c0.35-2.54,2.02-5.77-0.24-7.64c-2.41-2-5.66-0.24-8.16,0.89   c-12.24,5.51-19.27,15.65-22.96,28.06c-7.51,25.09,0.35,46.05,18.01,64.19c3.06,3.15,6.08,6.34,9.05,9.57   c12.07,13.19,14.11,31.99,5.16,47.37c-0.74,1.3-1.35,3.19-3.08,2.95c-2-0.28-1.41-2.41-1.69-3.8c-1.78-9.01-6.08-16.78-11.54-23.96   c-8.7-11.42-19.71-21.01-27.13-33.4c-14.13-23.59-17.49-48.35-6.49-74.05c8.01-18.66,22.9-28.13,42.9-29.93   c1.41-0.11,3.52,0.65,4.06-1.13c0.56-1.87-1.37-2.91-2.63-3.93c-7.64-6.1-16.41-5.95-25.11-3.67   c-19.86,5.19-30.49,19.62-36.07,38.26c-3.45,11.57-4.73,24.05-11.44,34.31c-7.38,11.28-8.66,23.39-7.88,36.22   c0.09,1.43,0.52,3.02-1.19,4.93c-4.12-7.49-5.53-15.28-6.9-23.03C142.86,314.99,147.76,288.77,165.82,265.9z M169.57,346.96   c0.3-1.32,0.67-2.6,1.06-3.91c0.22-0.65,0.52-1.26,1.35-1.3c0.85-0.02,1.09,0.61,1.3,1.26c3.78,12,9.05,23.63,8.88,39.45   c-0.74,10.89-6.03,22.24-17.51,30.32c-1.32,0.91-2.97,2.58-4.51,1.39c-1.76-1.37,0.11-3.1,0.74-4.51   c4.71-10.68,6.88-21.85,6.77-33.49C167.55,366.38,167.34,356.57,169.57,346.96z M60.37,615.84c-1.39,1.74-3.91,0.13-5.58-0.72   c-10.07-5.1-18.9-11.81-25.48-21.09c-19.68-27.76-17.23-61.81,6.36-88.96c11.76-13.54,25.22-25.41,37.63-38.3   c12.44-12.89,22.92-27.08,29.06-44.05c4.12-11.42,5.23-23.13,0.3-34.61c-3.23-7.51-8.05-13.74-16.84-15.34   c-5.3-0.98-7.55,0.76-7.7,6.21c-0.11,3.99-1.61,6.92-5.45,8.2c-4.17,1.39-7.2-0.56-9.57-3.84c-3.95-5.51-2.5-13.52,3.67-18.49   c8.09-6.53,17.56-7.44,26.76-3.86c15.43,5.99,22.96,18.69,25.91,34.35c0.69,3.8,1.24,7.68,0.8,11.46   c-0.15,23.46-10.55,42.27-25.82,58.96c-15.26,16.69-31.4,32.55-45.18,50.54c-18.25,23.85-19.71,52-3.88,77.56   c3.73,6.05,8.05,11.65,12.78,16.97C59.37,612.22,61.93,613.86,60.37,615.84z M234.33,622.22c-0.91,2.24-3.58,1.13-5.49,1.35   c-0.85,0.09-1.69,0.02-2.54,0.02v-0.09c-1.69,0-3.36-0.02-5.06,0.02c-3.04,0.04-4.36-1.41-4.97-4.45   c-4.04-20.62-16.58-30.73-37.54-30.58c-0.85,0-1.69,0.09-2.54,0.04c-1.13-0.07-2.58,0.33-3.21-0.93c-0.69-1.41,0.76-2.04,1.54-2.82   c13.09-13.13,18.97-29.17,19.31-47.46c0.09-4.43,7.33-10.09,11.5-8.85c2.45,0.76,2.02,3.3,2.43,5.14   c4.71,20.88,9.31,41.78,13.98,62.65c1.76,7.83,5.01,15,10.05,21.31C232.92,618.99,235.05,620.44,234.33,622.22z M288.65,621.96   c-7.53-0.54-15.26,1.13-22.61-1.43c-12.74-4.47-20.88-13.48-24.54-26.3c-6.99-24.33-12.24-49.11-17.75-73.79   c-3.49-15.65-6.92-31.32-10.48-46.94c-1.09-4.77-2.45-9.48-6.4-12.91c-1.65-1.41-1.84-3.39-1.93-5.53   c-0.17-5.21-4.73-7.51-9.29-4.75c-3.67,2.23-5.03,5.84-5.12,9.9c-0.22,9.68,11.78,47.84,5.34,49.9   c-13.69,0-27.96-14.66-40.67-17.48c-17.49-3.88-31.12,1.71-41.82,15.65c-2.45,3.19-3.32,6.16-0.26,9.48   c3.21,3.49,6.23,1.67,9.01-0.28c3.84-2.71,7.2-6.1,11.83-7.66c19.34-6.6,38.37,6.81,39.37,27.73   c1.04,21.61-11.37,35.09-27.95,45.96c-10.42,6.81-22.09,10.81-33.79,14.71c-4.25,1.43-8.51,3.08-12.67,7.51   c17.47-1.26,33.64-0.59,49.81-0.76c10.13-0.13,20.27-0.07,30.4,0.06c8.42,0.11,14.37,4.17,18.03,11.72   c1.56,3.23,1.22,5.12-2.93,5.1c-29.06-0.06-58.16,0.98-87.13-0.52c-21.51-1.13-40.58-16.67-43.77-43.71   c-3.28-27.89,4.54-51.43,24.18-71.64c23.65-24.33,46.64-49.31,69.9-74.02c1.52-1.63,3.21-2.97,5.38-3.65   c14.41-4.45,24.31-14.15,31.18-27.21c1.61-3.04,3.21-4.17,6.14-1.74c14.15,11.83,26.43,24.83,28.19,44.47   c0.22,2.34,0.39,4.73,0.28,7.07c-0.22,4.84,1.09,5.88,5.47,3.67c5.84-2.93,10.5-7.36,14.37-12.57c1.91-2.56,3.49-5.38,5.23-8.05   c0.72-1.09,0.89-2.91,2.54-2.82c1.91,0.11,2.02,2.06,2.45,3.41c2.08,6.84,2.84,13.87,2.84,21.01c0.02,42.9,0.04,85.81,0.06,128.69   c0,11.94,2.8,15.58,14.26,18.58c8.22,2.15,14.32,8.27,15.15,15.17C291.17,619.92,291.43,622.18,288.65,621.96z" style="fill: #e3d295;"></path><path d="M263.41,275.23c1.57,2.66,3.26,5.25,5.04,7.77c1.81,2.57,10.4,4.85,11.71,2.9c2.13-3.17-1.57-4.99-2.61-7.42   c-0.72-1.69-2.06-3.1-2.88-4.76c-1.77-3.56-4.39-5.38-8.51-4.68c-1.95,0.42-4.82-1-5.81,0.79   C258.98,272.3,262.33,273.41,263.41,275.23z" style="fill: #e3d295;"></path><path d="M855.69,540.41c-1.93-11.84-6.22-23.29-12.73-33.37c-13.61-21.09-35.44-35.28-52.74-53.46   c-17.3-18.18-30.49-44.78-20.88-67.97c2.42,10.7,15.25,17.24,25.74,14.04c10.49-3.2,17.4-14.56,16.73-25.51   c-0.67-10.95-8.08-20.87-17.79-25.96c-20.1-10.52-46.65,0.08-59.01,19.1s-12.8,43.72-7.36,65.74   c-12.91-10.84-15.75-29.83-13.33-46.51s9.1-32.5,11.76-49.14c6.14-38.44-11.51-79.68-43.56-101.77c-1.78-1.22-3.62-2.42-4.95-4.12   c-2-2.56-2.58-5.92-3.92-8.89c-3.23-7.15-10.67-11.48-18.14-13.9c-27.01-8.75-59.36,4.14-72.96,29.06   c-2.57,4.71-4.57,9.83-8.15,13.82c-2.69,3.01-6.13,5.22-9.53,7.4c-8.91,5.71-29.18,13.55-31.04,24.33   c-2.06,11.91,8.72,23.36,10.53,34.78c0.66,4.13,0.37,8.37,1.2,12.47c2.06,10.15,11.62,18.27,21.98,18.66   c-15.91,16.51-25.17,39.27-25.31,62.2c-0.14,22.93,8.85,45.8,24.56,62.5c2.85,3.03,5.98,5.98,7.52,9.84   c1.29,3.27,1.31,6.88,1.31,10.39c0.01,27.7,0.01,55.39,0.02,83.09c0,2.2-0.02,4.49-1.01,6.45c-1.93,3.83-6.65,5.06-10.43,7.09   c-7.57,4.07-12.1,12.4-13.67,20.86c-1.57,8.45-0.59,17.15,0.39,25.69c70.88-0.38,141.77-0.75,212.65-1.13   c13.88-0.07,28.03-0.19,41.23-4.48c22.83-7.42,40.58-27.28,47.95-50.13C857.02,568.35,857.93,554.12,855.69,540.41z M552.51,305.07   c-4.34-6.97-4.04-15.58,1.06-19.7c6.68-5.43,13.61-10.55,20.4-15.84c6.62-5.17,12.52-11.44,21.14-13.52   c1.65-0.41,2.23-1.89,2.5-3.52c2.21-14.61,11.57-22.74,24.89-27.04c10.33-3.34,20.64-3,30.71,1.26c1.28,0.54,3.56,0.82,3.04,2.69   c-0.5,1.8-2.63,0.87-4.04,0.89c-4.38,0.07-8.83-0.39-13.15,0.09c-11.44,1.26-21.72,4.99-28.78,14.84c-1.17,1.67-2.58,3.3-2.04,6.18   c2.41-1.56,4.38-2.82,6.34-4.12c7.21-4.82,15.1-7.16,23.83-7.36c22.2-0.5,39.56,9.03,52.95,25.98   c18.06,22.87,22.96,49.09,17.9,77.45c-1.37,7.75-2.78,15.54-6.9,23.03c-1.71-1.91-1.28-3.49-1.19-4.93   c0.78-12.83-0.5-24.94-7.88-36.22c-6.71-10.26-7.99-22.74-11.44-34.31c-5.58-18.64-16.21-33.07-36.07-38.26   c-8.7-2.28-17.47-2.43-25.11,3.67c-1.26,1.02-3.19,2.06-2.63,3.93c0.54,1.78,2.65,1.02,4.06,1.13c20.01,1.8,34.9,11.26,42.9,29.93   c11,25.69,7.64,50.46-6.49,74.05c-7.42,12.39-18.42,21.98-27.13,33.4c-5.47,7.18-9.77,14.95-11.54,23.96   c-0.28,1.39,0.3,3.52-1.69,3.8c-1.74,0.24-2.34-1.65-3.08-2.95c-8.94-15.39-6.9-34.18,5.16-47.37c2.97-3.23,5.99-6.42,9.05-9.57   c17.67-18.14,25.52-39.11,18.01-64.19c-3.69-12.41-10.72-22.55-22.96-28.06c-2.5-1.13-5.75-2.89-8.16-0.89   c-2.26,1.87-0.59,5.1-0.24,7.64c2.39,16.95-2.93,30.88-15.86,42.01c-3.39,2.91-5.12,3.02-7.08-1.71c-3.8-9.2-17.08-15.28-24.72-12   C561.64,312.25,556,310.71,552.51,305.07z M696.3,409.65c0.63,1.41,2.5,3.15,0.74,4.51c-1.54,1.19-3.19-0.48-4.51-1.39   c-11.48-8.07-16.78-19.42-17.51-30.32c-0.17-15.82,5.1-27.45,8.88-39.45c0.22-0.65,0.46-1.28,1.3-1.26   c0.83,0.04,1.13,0.65,1.35,1.3c0.39,1.3,0.76,2.58,1.06,3.91c2.24,9.61,2.02,19.42,1.93,29.21   C689.43,387.8,691.6,398.97,696.3,409.65z M558.26,327.42c-0.63-2-1.11-4.3,1.74-4.88c3.28-0.69,6.55-1.76,10-1.37   c3.67,0.41,10.24,6.38,9.53,9.33c-1.13,4.71-5.75,3.49-9.16,4.21c-0.15,0.04-0.33,0-0.5,0.02   C564.14,334.72,559.69,331.96,558.26,327.42z M561.99,426.08c-3.58-25.54,3.91-47.92,21.55-66.86   c8.64-9.29,18.97-16.75,27.73-25.89c5.62-5.88,10.63-12.2,12.54-20.4c0.67-2.86,0.41-5.99,3.1-9.53   c2.73,7.27,3.02,13.65,2.28,20.25c-1.48,12.85-8.25,23-16.34,32.49c-9.81,11.5-18.71,23.55-23.22,38.22   c-3.17,10.29-6.45,20.59-8.88,31.08c-2.34,10.16-4.51,20.51-0.5,30.88c0.46,1.24,1.98,3.02,0.04,3.99   c-1.67,0.85-2.63-1.09-3.65-2.08C567.74,449.37,563.66,437.97,561.99,426.08z M640.9,619.07c-0.61,3.04-1.93,4.49-4.97,4.45   c-1.69-0.04-3.36-0.02-5.06-0.02v0.09c-0.85,0-1.69,0.07-2.54-0.02c-1.91-0.22-4.58,0.89-5.49-1.35c-0.72-1.78,1.41-3.23,2.54-4.64   c5.04-6.32,8.29-13.48,10.05-21.31c4.67-20.88,9.27-41.78,13.98-62.65c0.41-1.84-0.02-4.38,2.43-5.14   c4.17-1.24,11.41,4.43,11.5,8.85c0.35,18.29,6.23,34.33,19.31,47.46c0.78,0.78,2.23,1.41,1.54,2.82c-0.63,1.26-2.08,0.87-3.21,0.93   c-0.85,0.04-1.69-0.04-2.54-0.04C657.48,588.34,644.94,598.46,640.9,619.07z M793.88,577.62c-3.19,27.04-22.27,42.58-43.77,43.71   c-28.97,1.5-58.07,0.46-87.13,0.52c-4.15,0.02-4.49-1.87-2.93-5.1c3.67-7.55,9.61-11.61,18.03-11.72   c10.13-0.13,20.27-0.2,30.4-0.06c16.17,0.17,32.34-0.5,49.81,0.76c-4.17-4.43-8.42-6.08-12.67-7.51   c-11.7-3.91-23.37-7.9-33.79-14.71c-16.58-10.87-28.99-24.35-27.95-45.96c1-20.92,20.03-34.33,39.37-27.73   c4.62,1.56,7.99,4.95,11.83,7.66c2.78,1.95,5.79,3.78,9.01,0.28c3.06-3.32,2.19-6.29-0.26-9.48   c-10.7-13.93-24.33-19.53-41.82-15.65c-12.72,2.82-26.98,17.48-40.67,17.48c-6.44-2.06,5.56-40.22,5.34-49.9   c-0.09-4.06-1.45-7.66-5.12-9.9c-4.56-2.76-9.12-0.46-9.29,4.75c-0.09,2.15-0.28,4.12-1.93,5.53c-3.95,3.43-5.32,8.14-6.4,12.91   c-3.56,15.63-6.99,31.29-10.48,46.94c-5.51,24.68-10.76,49.46-17.75,73.79c-3.67,12.83-11.81,21.83-24.54,26.3   c-7.36,2.56-15.08,0.89-22.61,1.43c-2.78,0.22-2.52-2.04-2.28-3.97c0.82-6.9,6.92-13.02,15.15-15.17   c11.46-2.99,14.26-6.64,14.26-18.58c0.02-42.88,0.04-85.79,0.06-128.69c0-7.14,0.76-14.17,2.84-21.01c0.43-1.35,0.54-3.3,2.45-3.41   c1.65-0.09,1.82,1.74,2.54,2.82c1.74,2.67,3.32,5.49,5.23,8.05c3.86,5.21,8.53,9.64,14.37,12.57c4.38,2.21,5.69,1.17,5.47-3.67   c-0.11-2.34,0.06-4.73,0.28-7.07c1.76-19.64,14.04-32.64,28.19-44.47c2.93-2.43,4.54-1.3,6.14,1.74   c6.88,13.06,16.77,22.77,31.18,27.21c2.17,0.67,3.86,2.02,5.38,3.65c23.26,24.72,46.25,49.7,69.9,74.02   C789.34,526.19,797.15,549.74,793.88,577.62z M827.86,594.03c-6.58,9.29-15.41,15.99-25.48,21.09c-1.67,0.85-4.19,2.45-5.58,0.72   c-1.56-1.97,1-3.62,2.23-5.01c4.73-5.32,9.05-10.92,12.78-16.97c15.82-25.56,14.37-53.71-3.88-77.56   c-13.78-17.99-29.93-33.85-45.18-50.54c-15.28-16.69-25.67-35.5-25.82-58.96c-0.43-3.78,0.11-7.66,0.8-11.46   c2.95-15.67,10.48-28.36,25.91-34.35c9.2-3.58,18.66-2.67,26.76,3.86c6.16,4.97,7.62,12.98,3.67,18.49   c-2.37,3.28-5.4,5.23-9.57,3.84c-3.84-1.28-5.34-4.21-5.45-8.2c-0.15-5.45-2.41-7.18-7.7-6.21c-8.79,1.61-13.61,7.83-16.84,15.34   c-4.93,11.48-3.82,23.2,0.3,34.61c6.14,16.97,16.62,31.16,29.06,44.05c12.41,12.89,25.87,24.76,37.63,38.3   C845.09,532.22,847.54,566.27,827.86,594.03z" style="fill: #e3d295;"></path><path d="M588.73,283.01c1.78-2.52,3.47-5.12,5.04-7.77c1.08-1.83,4.43-2.93,3.06-5.39c-1-1.79-3.87-0.37-5.81-0.79   c-4.11-0.7-6.74,1.12-8.5,4.68c-0.82,1.66-2.16,3.07-2.88,4.76c-1.04,2.44-4.75,4.26-2.61,7.42   C578.33,287.86,586.91,285.58,588.73,283.01z" style="fill: #e3d295;"></path><path d="M513.81,395.36c-3.04-1.8-6.08-3.73-9.7-4.02c-2.13-0.17-3.12-0.89-3.32-3.13c-0.32-3.63-2.48-6.56-4.21-9.62   c-1.29-2.28-2.59-2.06-3.89-0.02c-1.83,2.88-3.44,5.89-3.82,9.32c-0.27,2.48-1.23,3.59-3.84,3.68c-3.83,0.14-6.88,2.43-9.97,4.41   c-2.11,1.36-1.93,2.81,0.2,3.98c2.84,1.56,5.67,3.31,8.97,3.52c2.83,0.18,4.24,1.09,4.31,4.19c0.08,3.46,1.86,6.44,3.64,9.36   c1.58,2.58,3.02,3.01,4.76,0.11c1.76-2.93,3.44-5.9,3.7-9.35c0.22-2.85,1.33-4.18,4.34-4.26c3.29-0.08,6.28-1.45,9.04-3.24   c0.85-0.55,1.78-1.09,1.89-2.3C515.82,396.63,514.82,395.95,513.81,395.36z" style="fill: #e3d295;"></path><path d="M513.81,463.98c-3.04-1.8-6.08-3.73-9.7-4.02c-2.13-0.17-3.12-0.89-3.32-3.13c-0.32-3.63-2.48-6.56-4.21-9.62   c-1.29-2.28-2.59-2.06-3.89-0.02c-1.83,2.88-3.44,5.89-3.82,9.32c-0.27,2.48-1.23,3.59-3.84,3.68c-3.83,0.14-6.88,2.43-9.97,4.41   c-2.11,1.36-1.93,2.81,0.2,3.98c2.84,1.56,5.67,3.31,8.97,3.52c2.83,0.18,4.24,1.09,4.31,4.19c0.08,3.46,1.86,6.44,3.64,9.36   c1.58,2.58,3.02,3.01,4.76,0.11c1.76-2.93,3.44-5.9,3.7-9.35c0.22-2.85,1.33-4.18,4.34-4.26c3.29-0.08,6.28-1.45,9.04-3.24   c0.85-0.55,1.78-1.09,1.89-2.3C515.82,465.25,514.82,464.57,513.81,463.98z" style="fill: #e3d295;"></path><path d="M488.54,544.91c0.08,3.46,1.86,6.44,3.64,9.36c1.58,2.58,3.02,3.01,4.76,0.11c1.76-2.93,3.44-5.9,3.7-9.35   c0.22-2.85,1.33-4.18,4.34-4.26c3.29-0.08,6.28-1.45,9.04-3.24c0.85-0.55,1.78-1.09,1.89-2.3c-0.1-1.36-1.1-2.04-2.1-2.63   c-3.04-1.8-6.08-3.73-9.7-4.02c-2.13-0.17-3.12-0.89-3.32-3.13c-0.32-3.63-2.48-6.56-4.21-9.62c-1.29-2.28-2.59-2.06-3.89-0.02   c-1.83,2.88-3.44,5.89-3.82,9.32c-0.27,2.48-1.23,3.59-3.84,3.68c-3.83,0.14-6.88,2.43-9.97,4.41c-2.11,1.36-1.93,2.81,0.2,3.98   c2.84,1.56,5.67,3.31,8.97,3.52C487.06,540.9,488.47,541.81,488.54,544.91z" style="fill: #e3d295;"></path><path d="M379.14,395.36c-3.04-1.8-6.08-3.73-9.7-4.02c-2.13-0.17-3.12-0.89-3.32-3.13c-0.32-3.63-2.48-6.56-4.22-9.62   c-1.29-2.28-2.59-2.06-3.89-0.02c-1.83,2.88-3.44,5.89-3.82,9.32c-0.27,2.48-1.23,3.59-3.84,3.68c-3.83,0.14-6.88,2.43-9.97,4.41   c-2.11,1.36-1.93,2.81,0.2,3.98c2.84,1.56,5.67,3.31,8.97,3.52c2.83,0.18,4.24,1.09,4.31,4.19c0.08,3.46,1.86,6.44,3.64,9.36   c1.58,2.58,3.02,3.01,4.76,0.11c1.76-2.93,3.44-5.9,3.7-9.35c0.22-2.85,1.33-4.18,4.34-4.26c3.29-0.08,6.28-1.45,9.04-3.24   c0.85-0.55,1.78-1.09,1.89-2.3C381.15,396.63,380.15,395.95,379.14,395.36z" style="fill: #e3d295;"></path><path d="M379.14,463.98c-3.04-1.8-6.08-3.73-9.7-4.02c-2.13-0.17-3.12-0.89-3.32-3.13c-0.32-3.63-2.48-6.56-4.22-9.62   c-1.29-2.28-2.59-2.06-3.89-0.02c-1.83,2.88-3.44,5.89-3.82,9.32c-0.27,2.48-1.23,3.59-3.84,3.68c-3.83,0.14-6.88,2.43-9.97,4.41   c-2.11,1.36-1.93,2.81,0.2,3.98c2.84,1.56,5.67,3.31,8.97,3.52c2.83,0.18,4.24,1.09,4.31,4.19c0.08,3.46,1.86,6.44,3.64,9.36   c1.58,2.58,3.02,3.01,4.76,0.11c1.76-2.93,3.44-5.9,3.7-9.35c0.22-2.85,1.33-4.18,4.34-4.26c3.29-0.08,6.28-1.45,9.04-3.24   c0.85-0.55,1.78-1.09,1.89-2.3C381.15,465.25,380.15,464.57,379.14,463.98z" style="fill: #e3d295;"></path><path d="M379.14,532.6c-3.04-1.8-6.08-3.73-9.7-4.02c-2.13-0.17-3.12-0.89-3.32-3.13c-0.32-3.63-2.48-6.56-4.22-9.62   c-1.29-2.28-2.59-2.06-3.89-0.02c-1.83,2.88-3.44,5.89-3.82,9.32c-0.27,2.48-1.23,3.59-3.84,3.68c-3.83,0.14-6.88,2.43-9.97,4.41   c-2.11,1.36-1.93,2.81,0.2,3.98c2.84,1.56,5.67,3.31,8.97,3.52c2.83,0.18,4.24,1.09,4.31,4.19c0.08,3.46,1.86,6.44,3.64,9.36   c1.58,2.58,3.02,3.01,4.76,0.11c1.76-2.93,3.44-5.9,3.7-9.35c0.22-2.85,1.33-4.18,4.34-4.26c3.29-0.08,6.28-1.45,9.04-3.24   c0.85-0.55,1.78-1.09,1.89-2.3C381.15,533.88,380.15,533.19,379.14,532.6z" style="fill: #e3d295;"></path></svg> <svg y="436.94500732421875" viewBox="0.6200000047683716 4.46999979019165 120.45999908447266 11.110000610351562" x="227.27007736206053" height="11.110000610351562" width="120.45999908447266" xmlns="http://www.w3.org/2000/svg" style="overflow: visible;"><g fill="#e3d295" style=""><path d="M4.63 15.58L4.63 15.58Q3.55 15.58 2.68 15.31Q1.82 15.04 1.03 14.36L1.03 14.36Q0.83 14.19 0.72 13.97Q0.62 13.76 0.62 13.54L0.62 13.54Q0.62 13.19 0.87 12.92Q1.13 12.65 1.51 12.65L1.51 12.65Q1.80 12.65 2.04 12.83L2.04 12.83Q2.62 13.31 3.20 13.56Q3.78 13.81 4.63 13.81L4.63 13.81Q5.20 13.81 5.68 13.63Q6.15 13.45 6.45 13.15Q6.74 12.85 6.74 12.46L6.74 12.46Q6.74 12.00 6.46 11.68Q6.19 11.35 5.61 11.13Q5.04 10.91 4.16 10.78L4.16 10.78Q3.33 10.66 2.70 10.40Q2.07 10.15 1.64 9.76Q1.22 9.36 1.00 8.83Q0.79 8.30 0.79 7.64L0.79 7.64Q0.79 6.63 1.30 5.92Q1.82 5.21 2.70 4.84Q3.58 4.47 4.64 4.47L4.64 4.47Q5.65 4.47 6.50 4.77Q7.36 5.07 7.90 5.54L7.90 5.54Q8.34 5.89 8.34 6.35L8.34 6.35Q8.34 6.69 8.08 6.97Q7.82 7.25 7.47 7.25L7.47 7.25Q7.23 7.25 7.05 7.11L7.05 7.11Q6.80 6.89 6.39 6.70Q5.97 6.51 5.51 6.38Q5.04 6.25 4.64 6.25L4.64 6.25Q3.98 6.25 3.52 6.42Q3.07 6.59 2.84 6.88Q2.61 7.17 2.61 7.56L2.61 7.56Q2.61 8.02 2.88 8.32Q3.15 8.62 3.66 8.80Q4.16 8.98 4.87 9.12L4.87 9.12Q5.80 9.29 6.50 9.52Q7.20 9.75 7.67 10.11Q8.13 10.47 8.36 11.02Q8.59 11.57 8.59 12.36L8.59 12.36Q8.59 13.36 8.04 14.08Q7.48 14.81 6.58 15.19Q5.68 15.58 4.63 15.58ZM11.31 4.63L11.31 4.63L16.47 4.63Q16.87 4.63 17.14 4.88Q17.41 5.14 17.41 5.54L17.41 5.54Q17.41 5.92 17.14 6.16Q16.87 6.40 16.47 6.40L16.47 6.40L12.15 6.40L12.29 6.14L12.29 9.15L12.17 9.02L15.78 9.02Q16.18 9.02 16.45 9.28Q16.72 9.53 16.72 9.93L16.72 9.93Q16.72 10.32 16.45 10.56Q16.18 10.80 15.78 10.80L15.78 10.80L12.22 10.80L12.29 10.67L12.29 13.79L12.17 13.65L16.47 13.65Q16.87 13.65 17.14 13.92Q17.41 14.19 17.41 14.55L17.41 14.55Q17.41 14.93 17.14 15.18Q16.87 15.42 16.47 15.42L16.47 15.42L11.31 15.42Q10.91 15.42 10.64 15.15Q10.37 14.88 10.37 14.48L10.37 14.48L10.37 5.57Q10.37 5.17 10.64 4.90Q10.91 4.63 11.31 4.63ZM20.30 15.42L20.30 15.42Q19.87 15.42 19.53 15.15Q19.19 14.88 19.19 14.48L19.19 14.48L19.19 5.57Q19.19 5.17 19.46 4.90Q19.73 4.63 20.13 4.63L20.13 4.63L24.57 4.63Q25.37 4.63 26.08 5.05Q26.78 5.48 27.21 6.22Q27.64 6.97 27.64 7.94L27.64 7.94Q27.64 8.53 27.40 9.09Q27.16 9.64 26.75 10.09Q26.35 10.54 25.84 10.78L25.84 10.78L25.85 10.43Q26.28 10.66 26.57 10.97Q26.85 11.29 27.02 11.65Q27.18 12.02 27.21 12.43L27.21 12.43Q27.27 12.82 27.29 13.11Q27.32 13.40 27.39 13.60Q27.46 13.81 27.66 13.91L27.66 13.91Q28.00 14.11 28.08 14.49Q28.17 14.87 27.90 15.16L27.90 15.16Q27.73 15.36 27.47 15.42Q27.21 15.47 26.95 15.42Q26.68 15.36 26.51 15.27L26.51 15.27Q26.25 15.12 25.99 14.82Q25.73 14.51 25.57 14.01Q25.40 13.50 25.40 12.69L25.40 12.69Q25.40 12.43 25.31 12.21Q25.22 11.98 25.05 11.82Q24.88 11.66 24.62 11.58Q24.36 11.49 24.00 11.49L24.00 11.49L20.88 11.49L21.12 11.14L21.12 14.48Q21.12 14.88 20.90 15.15Q20.68 15.42 20.30 15.42ZM21.12 10.27L20.90 9.90L24.49 9.90Q24.77 9.90 25.03 9.65Q25.30 9.39 25.47 8.95Q25.64 8.51 25.64 7.99L25.64 7.99Q25.64 7.31 25.27 6.86Q24.91 6.40 24.49 6.40L24.49 6.40L20.93 6.40L21.12 5.91L21.12 10.27ZM30.73 4.63L30.73 4.63L35.89 4.63Q36.29 4.63 36.56 4.88Q36.83 5.14 36.83 5.54L36.83 5.54Q36.83 5.92 36.56 6.16Q36.29 6.40 35.89 6.40L35.89 6.40L31.57 6.40L31.71 6.14L31.71 9.15L31.59 9.02L35.20 9.02Q35.60 9.02 35.87 9.28Q36.14 9.53 36.14 9.93L36.14 9.93Q36.14 10.32 35.87 10.56Q35.60 10.80 35.20 10.80L35.20 10.80L31.64 10.80L31.71 10.67L31.71 13.79L31.59 13.65L35.89 13.65Q36.29 13.65 36.56 13.92Q36.83 14.19 36.83 14.55L36.83 14.55Q36.83 14.93 36.56 15.18Q36.29 15.42 35.89 15.42L35.89 15.42L30.73 15.42Q30.32 15.42 30.05 15.15Q29.78 14.88 29.78 14.48L29.78 14.48L29.78 5.57Q29.78 5.17 30.05 4.90Q30.32 4.63 30.73 4.63ZM46.80 4.63L46.80 4.63Q47.17 4.63 47.40 4.87Q47.63 5.12 47.63 5.49L47.63 5.49L47.63 14.48Q47.63 14.88 47.36 15.15Q47.09 15.42 46.69 15.42L46.69 15.42Q46.49 15.42 46.28 15.36Q46.07 15.29 45.97 15.16L45.97 15.16L39.90 7.47L40.30 7.22L40.30 14.56Q40.30 14.93 40.07 15.18Q39.83 15.42 39.44 15.42L39.44 15.42Q39.07 15.42 38.84 15.18Q38.61 14.93 38.61 14.56L38.61 14.56L38.61 5.57Q38.61 5.17 38.88 4.90Q39.15 4.63 39.55 4.63L39.55 4.63Q39.76 4.63 40.00 4.71Q40.23 4.80 40.34 4.97L40.34 4.97L46.21 12.46L45.95 12.65L45.95 5.49Q45.95 5.12 46.18 4.87Q46.41 4.63 46.80 4.63ZM50.89 4.63L50.89 4.63L56.05 4.63Q56.45 4.63 56.72 4.88Q56.99 5.14 56.99 5.54L56.99 5.54Q56.99 5.92 56.72 6.16Q56.45 6.40 56.05 6.40L56.05 6.40L51.73 6.40L51.87 6.14L51.87 9.15L51.75 9.02L55.36 9.02Q55.76 9.02 56.03 9.28Q56.30 9.53 56.30 9.93L56.30 9.93Q56.30 10.32 56.03 10.56Q55.76 10.80 55.36 10.80L55.36 10.80L51.80 10.80L51.87 10.67L51.87 13.79L51.75 13.65L56.05 13.65Q56.45 13.65 56.72 13.92Q56.99 14.19 56.99 14.55L56.99 14.55Q56.99 14.93 56.72 15.18Q56.45 15.42 56.05 15.42L56.05 15.42L50.89 15.42Q50.48 15.42 50.21 15.15Q49.94 14.88 49.94 14.48L49.94 14.48L49.94 5.57Q49.94 5.17 50.21 4.90Q50.48 4.63 50.89 4.63ZM64.68 13.62L69.04 13.62Q69.44 13.62 69.71 13.87Q69.98 14.13 69.98 14.53L69.98 14.53Q69.98 14.92 69.71 15.17Q69.44 15.42 69.04 15.42L69.04 15.42L64.03 15.42Q63.63 15.42 63.36 15.15Q63.09 14.88 63.09 14.48L63.09 14.48L63.09 5.57Q63.09 5.17 63.36 4.90Q63.64 4.63 64.07 4.63L64.07 4.63Q64.44 4.63 64.73 4.90Q65.01 5.17 65.01 5.57L65.01 5.57L65.01 13.88L64.68 13.62ZM79.11 4.61L79.11 4.61Q79.51 4.61 79.76 4.88Q80.01 5.15 80.01 5.55L80.01 5.55L80.01 11.14Q80.01 12.42 79.46 13.40Q78.91 14.39 77.96 14.95Q77.00 15.50 75.73 15.50L75.73 15.50Q74.47 15.50 73.51 14.95Q72.54 14.39 71.99 13.40Q71.45 12.42 71.45 11.14L71.45 11.14L71.45 5.55Q71.45 5.15 71.72 4.88Q72.00 4.61 72.43 4.61L72.43 4.61Q72.79 4.61 73.07 4.88Q73.36 5.15 73.36 5.55L73.36 5.55L73.36 11.14Q73.36 11.91 73.69 12.47Q74.02 13.03 74.57 13.34Q75.12 13.65 75.73 13.65L75.73 13.65Q76.40 13.65 76.97 13.34Q77.54 13.03 77.89 12.47Q78.25 11.91 78.25 11.14L78.25 11.14L78.25 5.55Q78.25 5.15 78.48 4.88Q78.71 4.61 79.11 4.61ZM89.56 4.61L89.56 4.61Q89.91 4.61 90.16 4.89Q90.42 5.17 90.42 5.48L90.42 5.48Q90.42 5.77 90.22 6.03L90.22 6.03L87.12 10.12L86.07 8.68L88.80 5.06Q89.12 4.61 89.56 4.61ZM82.68 4.58L82.68 4.58Q83.12 4.58 83.43 4.98L83.43 4.98L90.22 14.01Q90.40 14.25 90.40 14.58L90.40 14.58Q90.40 15.01 90.10 15.25Q89.79 15.50 89.48 15.50L89.48 15.50Q89.03 15.50 88.72 15.10L88.72 15.10L81.94 6.08Q81.74 5.83 81.74 5.52L81.74 5.52Q81.74 5.12 82.04 4.85Q82.34 4.58 82.68 4.58ZM82.54 15.50L82.54 15.50Q82.20 15.50 81.95 15.25Q81.70 14.99 81.70 14.68L81.70 14.68Q81.70 14.34 81.94 14.05L81.94 14.05L85.07 9.81L86.08 11.31L83.31 15.07Q83.00 15.50 82.54 15.50ZM99.78 4.61L99.78 4.61Q100.18 4.61 100.43 4.88Q100.68 5.15 100.68 5.55L100.68 5.55L100.68 11.14Q100.68 12.42 100.13 13.40Q99.58 14.39 98.62 14.95Q97.67 15.50 96.40 15.50L96.40 15.50Q95.14 15.50 94.17 14.95Q93.21 14.39 92.66 13.40Q92.12 12.42 92.12 11.14L92.12 11.14L92.12 5.55Q92.12 5.15 92.39 4.88Q92.67 4.61 93.10 4.61L93.10 4.61Q93.46 4.61 93.74 4.88Q94.03 5.15 94.03 5.55L94.03 5.55L94.03 11.14Q94.03 11.91 94.36 12.47Q94.69 13.03 95.24 13.34Q95.79 13.65 96.40 13.65L96.40 13.65Q97.07 13.65 97.64 13.34Q98.21 13.03 98.56 12.47Q98.92 11.91 98.92 11.14L98.92 11.14L98.92 5.55Q98.92 5.15 99.15 4.88Q99.38 4.61 99.78 4.61ZM104.10 15.42L104.10 15.42Q103.67 15.42 103.33 15.15Q102.99 14.88 102.99 14.48L102.99 14.48L102.99 5.57Q102.99 5.17 103.26 4.90Q103.53 4.63 103.93 4.63L103.93 4.63L108.37 4.63Q109.18 4.63 109.88 5.05Q110.58 5.48 111.01 6.22Q111.44 6.97 111.44 7.94L111.44 7.94Q111.44 8.53 111.20 9.09Q110.96 9.64 110.56 10.09Q110.15 10.54 109.64 10.78L109.64 10.78L109.65 10.43Q110.09 10.66 110.37 10.97Q110.66 11.29 110.82 11.65Q110.98 12.02 111.01 12.43L111.01 12.43Q111.07 12.82 111.10 13.11Q111.12 13.40 111.19 13.60Q111.26 13.81 111.46 13.91L111.46 13.91Q111.80 14.11 111.88 14.49Q111.97 14.87 111.71 15.16L111.71 15.16Q111.54 15.36 111.27 15.42Q111.01 15.47 110.75 15.42Q110.49 15.36 110.32 15.27L110.32 15.27Q110.05 15.12 109.79 14.82Q109.53 14.51 109.37 14.01Q109.21 13.50 109.21 12.69L109.21 12.69Q109.21 12.43 109.11 12.21Q109.02 11.98 108.85 11.82Q108.68 11.66 108.42 11.58Q108.16 11.49 107.80 11.49L107.80 11.49L104.69 11.49L104.92 11.14L104.92 14.48Q104.92 14.88 104.70 15.15Q104.49 15.42 104.10 15.42ZM104.92 10.27L104.70 9.90L108.30 9.90Q108.57 9.90 108.84 9.65Q109.10 9.39 109.27 8.95Q109.44 8.51 109.44 7.99L109.44 7.99Q109.44 7.31 109.08 6.86Q108.71 6.40 108.30 6.40L108.30 6.40L104.73 6.40L104.92 5.91L104.92 10.27ZM120.16 4.58L120.16 4.58Q120.51 4.58 120.80 4.85Q121.08 5.12 121.08 5.54L121.08 5.54Q121.08 5.68 121.04 5.82Q121.01 5.97 120.91 6.11L120.91 6.11L117.41 11.12L117.69 10.06L117.69 14.48Q117.69 14.88 117.42 15.15Q117.15 15.42 116.80 15.42L116.80 15.42Q116.41 15.42 116.14 15.15Q115.87 14.88 115.87 14.48L115.87 14.48L115.87 10.18L115.99 10.67L112.66 6.25Q112.51 6.05 112.45 5.86Q112.38 5.68 112.38 5.52L112.38 5.52Q112.38 5.11 112.71 4.84Q113.03 4.58 113.37 4.58L113.37 4.58Q113.80 4.58 114.13 5.01L114.13 5.01L117.09 9.10L116.66 9.04L119.39 5.04Q119.71 4.58 120.16 4.58Z" transform="translate(0, 0)"></path></g></svg> <svg y="394.94500732421875" viewBox="0.8100000023841858 8.140000343322754 263.9599914550781 40.810001373291016" x="155.5200799560547" height="40.810001373291016" width="263.9599914550781" xmlns="http://www.w3.org/2000/svg" style="overflow: visible;"><g fill="#e3d295" style=""><path d="M1.01 39.76L0.81 35.65L5.16 34.85L5.16 25.78Q5.16 24.98 5.02 24.76Q4.87 24.54 4.11 24.09L4.11 24.09L0.81 22.28L1.17 19.62L8.66 17.44L11.97 17.73L11.97 33.56Q11.97 34.49 12.07 34.73Q12.17 34.97 12.73 35.25L12.73 35.25L15.59 36.70L15.47 39.76L1.01 39.76ZM28.08 40.57Q22.72 40.57 19.98 37.63Q17.24 34.69 17.24 29.01L17.24 29.01Q17.24 25.74 18.85 23.15Q20.47 20.55 23.35 19.10Q26.23 17.65 29.85 17.65L29.85 17.65Q35.21 17.65 37.97 20.59Q40.73 23.53 40.73 29.29L40.73 29.29Q40.73 32.55 39.12 35.11Q37.51 37.67 34.63 39.12Q31.75 40.57 28.08 40.57L28.08 40.57ZM29.45 35.57Q31.14 35.57 32.67 34.97L32.67 34.97Q33.00 34.08 33.20 32.61Q33.40 31.14 33.40 29.61L33.40 29.61Q33.40 26.27 32.15 24.54Q30.90 22.80 28.48 22.80L28.48 22.80Q27.23 22.80 25.22 23.17L25.22 23.17Q24.58 24.17 24.58 28.36L24.58 28.36Q24.58 31.83 25.84 33.70Q27.11 35.57 29.45 35.57L29.45 35.57ZM63.78 40.33Q57.09 40.33 53.80 36.94Q50.52 33.56 50.52 26.67L50.52 26.67Q50.52 22.20 52.17 18.92Q53.82 15.63 56.89 13.86Q59.95 12.09 64.18 12.09L64.18 12.09Q77.64 12.09 77.64 25.82L77.64 25.82Q77.64 30.34 75.98 33.60Q74.33 36.86 71.21 38.60Q68.09 40.33 63.78 40.33L63.78 40.33ZM64.62 34.77Q66.92 34.77 69.01 33.60L69.01 33.60Q69.46 32.35 69.70 30.48Q69.94 28.60 69.94 26.79L69.94 26.79Q69.94 22.32 68.27 20.02Q66.60 17.73 63.37 17.73L63.37 17.73Q61.08 17.73 58.94 18.57L58.94 18.57Q58.50 19.34 58.26 21.09Q58.01 22.84 58.01 25.10L58.01 25.10Q58.01 29.77 59.71 32.27Q61.40 34.77 64.62 34.77L64.62 34.77ZM80.46 39.72L80.25 35.90L82.75 35.17L82.75 25.42Q82.75 24.54 82.63 24.27Q82.51 24.01 81.99 23.69L81.99 23.69L80.21 22.72L80.33 19.70L81.22 19.54Q86.50 18.49 88.84 18.41L88.84 18.41Q89.16 19.26 89.36 20.26L89.36 20.26Q91.82 19.14 93.37 18.71Q94.92 18.29 96.29 18.29L96.29 18.29Q102.69 18.29 102.69 25.95L102.69 25.95L102.69 33.84Q102.69 34.69 102.82 34.97Q102.94 35.25 103.50 35.57L103.50 35.57L105.43 36.70L105.27 39.72L94.15 39.72L93.95 35.90L95.93 35.33L95.93 27.72Q95.93 25.91 95.81 25.18Q95.68 24.45 95.14 24.05Q94.60 23.65 93.23 23.65L93.23 23.65Q91.78 23.65 89.56 24.09L89.56 24.09L89.56 33.84Q89.56 34.69 89.68 34.97Q89.80 35.25 90.33 35.57L90.33 35.57L92.30 36.70L92.14 39.72L80.46 39.72ZM115.79 39.76L115.59 35.65L118.53 34.85L118.53 19.50Q118.53 18.45 118.37 18.11Q118.21 17.77 117.52 17.49L117.52 17.49L115.43 16.32L115.67 13.05Q118.73 12.57 121.47 12.35Q124.21 12.13 127.35 12.13L127.35 12.13Q131.70 12.13 134.34 13.05Q136.98 13.98 138.21 15.95Q139.44 17.93 139.44 21.19L139.44 21.19Q139.44 25.42 136.40 27.84Q133.35 30.26 128.08 30.26L128.08 30.26L125.86 30.18L125.86 33.24Q125.86 34.20 126.00 34.49Q126.14 34.77 126.71 35.05L126.71 35.05L129.16 36.50L129.00 39.76L115.79 39.76ZM128.44 25.78Q130.61 25.78 131.62 25.34L131.62 25.34Q132.06 23.37 132.06 21.19L132.06 21.19Q132.06 18.81 131.16 17.81Q130.25 16.80 128.24 16.80L128.24 16.80Q127.55 16.80 125.86 16.96L125.86 16.96L125.86 25.54Q126.95 25.78 128.44 25.78L128.44 25.78ZM147.62 40.29Q144.88 40.29 143.22 38.78Q141.57 37.27 141.57 34.89L141.57 34.89Q141.57 31.71 144.78 29.89Q147.98 28.08 154.10 27.84L154.10 27.84Q154.10 25.95 153.80 25.04Q153.50 24.13 152.71 23.79Q151.93 23.45 150.31 23.45L150.31 23.45Q148.66 23.45 147.98 23.57L147.98 23.57L146.33 26.83L143.35 26.63Q142.66 23.41 142.38 19.94L142.38 19.94Q144.63 19.18 147.31 18.73Q149.99 18.29 152.33 18.29L152.33 18.29Q156.60 18.29 158.45 19.96Q160.31 21.63 160.31 25.50L160.31 25.50L160.31 33.92Q160.31 34.65 160.45 34.93Q160.59 35.21 161.07 35.49L161.07 35.49L162.68 36.42L162.52 38.92Q157.85 40.01 155.15 40.13L155.15 40.13Q155.07 39.89 154.91 39.26Q154.75 38.64 154.63 38.07L154.63 38.07Q153.05 39.08 151.18 39.68Q149.31 40.29 147.62 40.29L147.62 40.29ZM150.31 35.74Q151.93 35.74 154.22 34.65L154.22 34.65L154.06 31.59Q153.09 31.51 152.77 31.51L152.77 31.51Q151.68 31.51 150.23 31.73Q148.78 31.95 147.94 32.23L147.94 32.23Q147.82 32.75 147.82 33.20L147.82 33.20Q147.82 34.41 148.48 35.07Q149.15 35.74 150.31 35.74L150.31 35.74ZM171.99 40.33Q168.77 40.33 167.20 38.41Q165.62 36.50 165.62 32.63L165.62 32.63L165.62 25.42Q165.62 24.54 165.48 24.27Q165.34 24.01 164.78 23.69L164.78 23.69L162.97 22.72L163.17 19.70Q163.73 19.62 163.97 19.54L163.97 19.54Q164.42 19.46 167.14 18.98Q169.85 18.49 171.67 18.41L171.67 18.41Q172.11 19.42 172.35 20.75L172.35 20.75L172.35 30.90Q172.35 32.67 172.45 33.40Q172.55 34.12 173.10 34.51Q173.64 34.89 174.97 34.89L174.97 34.89Q176.91 34.89 178.72 34.20L178.72 34.20L178.72 25.42Q178.72 24.54 178.60 24.27Q178.48 24.01 177.95 23.69L177.95 23.69L176.18 22.72L176.34 19.70Q179.60 19.10 181.44 18.77Q183.27 18.45 184.80 18.41L184.80 18.41Q185.24 19.42 185.49 20.75L185.49 20.75L185.49 33.96Q185.49 34.69 185.61 34.97Q185.73 35.25 186.17 35.53L186.17 35.53L187.78 36.46L187.66 38.96Q185.93 39.40 183.67 39.74Q181.42 40.09 179.48 40.17L179.48 40.17Q179.32 39.68 179.12 38.96L179.12 38.96Q179.08 38.64 178.92 38.19L178.92 38.19L178.80 38.19Q177.15 39.16 175.31 39.74Q173.48 40.33 171.99 40.33L171.99 40.33ZM189.07 39.76L188.95 36.06L191.77 35.21L191.77 15.91Q191.77 15.03 191.63 14.77Q191.49 14.50 190.93 14.18L190.93 14.18L189.15 13.25L189.35 10.19Q190.16 10.03 190.60 9.99L190.60 9.99Q195.92 9.02 198.02 8.94L198.02 8.94Q198.42 9.87 198.54 11.04L198.54 11.04L198.54 33.88Q198.54 34.73 198.66 35.01Q198.78 35.29 199.35 35.61L199.35 35.61L201.32 36.74L201.16 39.76L189.07 39.76ZM206.11 16.12L204.42 9.95L211.27 8.14L212.92 14.26L206.11 16.12ZM202.85 39.76L202.73 36.06L205.55 35.21L205.55 25.42Q205.55 24.54 205.41 24.27Q205.27 24.01 204.70 23.69L204.70 23.69L202.93 22.72L203.13 19.70Q206.48 19.06 208.31 18.75Q210.14 18.45 211.67 18.41L211.67 18.41Q212.20 20.14 212.32 20.99L212.32 20.99L212.32 33.88Q212.32 34.73 212.44 35.01Q212.56 35.29 213.12 35.61L213.12 35.61L215.10 36.74L214.94 39.76L202.85 39.76ZM216.95 39.72L216.75 35.90L219.25 35.17L219.25 25.42Q219.25 24.54 219.13 24.27Q219.01 24.01 218.48 23.69L218.48 23.69L216.71 22.72L216.83 19.70L217.72 19.54Q222.99 18.49 225.33 18.41L225.33 18.41Q225.65 19.26 225.86 20.26L225.86 20.26Q228.31 19.14 229.86 18.71Q231.41 18.29 232.78 18.29L232.78 18.29Q239.19 18.29 239.19 25.95L239.19 25.95L239.19 33.84Q239.19 34.69 239.31 34.97Q239.43 35.25 240.00 35.57L240.00 35.57L241.93 36.70L241.77 39.72L230.65 39.72L230.45 35.90L232.42 35.33L232.42 27.72Q232.42 25.91 232.30 25.18Q232.18 24.45 231.64 24.05Q231.09 23.65 229.72 23.65L229.72 23.65Q228.27 23.65 226.06 24.09L226.06 24.09L226.06 33.84Q226.06 34.69 226.18 34.97Q226.30 35.25 226.82 35.57L226.82 35.57L228.80 36.70L228.63 39.72L216.95 39.72ZM251.64 48.95Q247.01 48.95 244.65 47.50Q242.29 46.05 242.29 43.23L242.29 43.23Q242.29 40.25 245.03 37.99L245.03 37.99Q244.19 37.15 244.19 36.14L244.19 36.14Q244.19 34.69 246.08 32.03L246.08 32.03Q242.78 30.30 242.78 26.07L242.78 26.07Q242.78 22.36 245.29 20.33Q247.81 18.29 252.57 18.29L252.57 18.29Q255.91 18.29 258.05 19.30L258.05 19.30L262.88 17.81L264.77 17.81L264.77 23.65L261.63 23.65Q261.83 24.66 261.83 25.62L261.83 25.62Q261.83 29.33 259.33 31.26Q256.84 33.20 252.00 33.20L252.00 33.20Q250.35 33.20 249.02 32.96L249.02 32.96L249.02 33.52Q249.02 34.16 249.56 34.43Q250.11 34.69 251.92 34.93L251.92 34.93L255.55 35.45Q259.82 36.06 261.45 37.55Q263.08 39.04 263.08 41.38L263.08 41.38Q263.08 45.00 260.10 46.98Q257.12 48.95 251.64 48.95L251.64 48.95ZM252.61 29.25Q253.45 29.25 254.54 29.01L254.54 29.01Q254.70 28.52 254.84 27.56Q254.98 26.59 254.98 25.78L254.98 25.78Q254.98 23.97 254.20 23.09Q253.41 22.20 251.76 22.20L251.76 22.20Q250.95 22.20 249.99 22.44L249.99 22.44Q249.79 22.92 249.65 23.85Q249.50 24.78 249.50 25.62L249.50 25.62Q249.50 27.48 250.27 28.36Q251.04 29.25 252.61 29.25L252.61 29.25ZM253.49 44.40Q255.35 44.40 256.31 44.08L256.31 44.08Q256.55 43.59 256.55 42.79L256.55 42.79Q256.55 41.82 255.87 41.32Q255.18 40.81 253.41 40.57L253.41 40.57L252.12 40.37Q250.35 40.17 248.54 39.80L248.54 39.80Q248.30 40.89 248.30 41.54L248.30 41.54Q248.30 42.99 249.58 43.69Q250.87 44.40 253.49 44.40L253.49 44.40Z" transform="translate(0, 0)"></path></g></svg></svg>